<?xml version="1.0" encoding="utf-8"?>
<!-- Generator: Adobe Illustrator 16.0.0, SVG Export Plug-In . SVG Version: 6.00 Build 0)  -->
<!DOCTYPE svg PUBLIC "-//W3C//DTD SVG 1.1//EN" "http://www.w3.org/Graphics/SVG/1.1/DTD/svg11.dtd">
<svg version="1.1" id="Layer_1" xmlns="http://www.w3.org/2000/svg" xmlns:xlink="http://www.w3.org/1999/xlink" x="0px" y="0px"
	 width="138px" height="145px" viewBox="0 0 138 145" enable-background="new 0 0 138 145" xml:space="preserve">
<g>
	<path fill-rule="evenodd" clip-rule="evenodd" fill="#FFFFFF" d="M50.339,72.433C32.833,61.909,26.786,43.014,31.985,27.207
		C37.26,11.171,52.63-0.147,69.07,0.001c16.489,0.149,31.7,11.662,36.688,27.749c4.973,16.029-1.487,34.445-18.529,44.663
		c1.251,0.458,2.354,0.839,3.439,1.266c26.046,10.229,41.244,29.337,46.265,56.669c0.622,3.387,0.675,6.887,0.847,10.342
		c0.128,2.581-1.378,4.274-3.555,4.311c-2.152,0.035-3.729-1.64-3.75-4.202c-0.093-11.573-2.673-22.548-8.609-32.497
		c-11.877-19.905-29.35-30.471-52.758-30.982c-28.973-0.633-55.969,20.68-61.097,52.899c-0.574,3.606-0.624,7.297-0.91,10.95
		c-0.147,1.888-1.01,3.232-2.921,3.697c-1.651,0.4-3.008-0.222-3.837-1.62c-0.418-0.706-0.553-1.671-0.555-2.521
		c-0.075-30.53,20.271-58.457,49.383-67.826C49.487,72.797,49.791,72.653,50.339,72.433z M68.714,69.723
		c15.141,0.642,31.186-10.939,31.346-31.047c0.14-17.686-13.5-31.299-31.207-31.334c-17.72-0.036-31.299,13.47-31.364,31.196
		C37.424,56.298,50.86,69.718,68.714,69.723z"/>
</g>
</svg>
