<svg id="레이어_1" data-name="레이어 1" xmlns="http://www.w3.org/2000/svg" xmlns:xlink="http://www.w3.org/1999/xlink" viewBox="0 0 87.34 179.88"><defs><style>.cls-1{fill:none;}.cls-2{clip-path:url(#clip-path);}.cls-3{fill:#002b5e;}</style><clipPath id="clip-path" transform="translate(-252.95 -332.49)"><rect class="cls-1" x="195.6" y="318.53" width="203.99" height="203.99"/></clipPath></defs><title>icon-related-06</title><g class="cls-2"><path class="cls-3" d="M275.66,476.13h-8v1.28c0,6.63,5.07,10.92,10.46,12.7l-2.29,2.65c-3.11-1.42-7.86-4.34-10.05-8.64-1.51,4.16-5.58,7.68-10.15,9.83l-2.7-2.42c5.85-2.42,10.92-7,10.92-14.21v-1.19h-8v-3.06h19.83v3.06Zm-2.6,36.24c-8.32,0-13.76-3.2-13.76-8.18s5.58-8.23,13.76-8.23c8.41,0,13.85,3.24,13.85,8.23S281.46,512.37,273.06,512.37Zm-9.92-8.18c0,3.29,4.39,5.35,9.92,5.35,5.76,0,10.05-2.06,10.05-5.3s-4.25-5.3-10.05-5.3C267.48,498.93,263.14,500.85,263.14,504.19Zm28.29-20.66h-5.62v12.29h-3.52V471.19h3.52v9.19h5.62v3.15Z" transform="translate(-252.95 -332.49)"/><path class="cls-3" d="M310.07,501.63a0.79,0.79,0,0,1-1-1V487a0.79,0.79,0,0,1,1-1h8.45v-9.51h-9.41v-3.15H321a0.79,0.79,0,0,1,1,1v13.8a0.79,0.79,0,0,1-1,1h-8.41v9.37h3a78.69,78.69,0,0,0,10.92-.87v3.06a81.8,81.8,0,0,1-12,1h-4.52Zm13.71-22.48h5.16v-7.22h3.56v37.84h-3.56V492.31h-5.16V489h5.16v-6.58h-5.16v-3.25Zm16.5-7.91v40.44h-3.56V471.24h3.56Z" transform="translate(-252.95 -332.49)"/><path class="cls-3" d="M289.88,391.13a4.41,4.41,0,0,0-2.44-.53h-2.81v4.87h2.68a4.54,4.54,0,0,0,2.46-.56A2.59,2.59,0,0,0,289.88,391.13Z" transform="translate(-252.95 -332.49)"/><path class="cls-3" d="M308.19,390.61h-2.81v5.66h2.81a4.23,4.23,0,0,0,2.48-.62,2.5,2.5,0,0,0,.88-2.18,2.57,2.57,0,0,0-.88-2.19A4.06,4.06,0,0,0,308.19,390.61Z" transform="translate(-252.95 -332.49)"/><path class="cls-3" d="M331.56,437.59h-2v-6.3h-4.88V392.7l6.2-3.45v-1.63l-6.2-3.45v-6H303.11V352.44h10.36V341.78H303.11v-9.29H292.44v9.29H282.09v10.66h10.36v25.74h-21v6l-6.19,3.45v1.63l6.19,3.45v38.58h-4.87v6.3h-2a3,3,0,0,0-3,3v6.09a3,3,0,0,0,3,3h67a3,3,0,0,0,3-3v-6.09A3,3,0,0,0,331.56,437.59Zm-40.48-32.5a5,5,0,0,1-.23-0.88c-0.05-.31-0.09-0.62-0.12-0.94s-0.07-.63-0.09-0.94l0-.9q-0.13-1.34-.26-2.11a3,3,0,0,0-.39-1.16,1.22,1.22,0,0,0-.77-0.49,7,7,0,0,0-1.34-.1h-3.18v7.52H282.2v-16a0.68,0.68,0,0,1,.13-0.47,0.65,0.65,0,0,1,.48-0.14h4.83a7.8,7.8,0,0,1,2.19.29,5.62,5.62,0,0,1,1.76.85,3.93,3.93,0,0,1,1.16,1.41,4.33,4.33,0,0,1,.42,2,3.12,3.12,0,0,1-.79,2.18,4.09,4.09,0,0,1-2,1.19,2.74,2.74,0,0,1,1.86,1.28,6.2,6.2,0,0,1,.68,2.31c0.06,0.66.11,1.22,0.14,1.7s0.08,0.9.12,1.28a9,9,0,0,0,.23,1.09,4.53,4.53,0,0,0,.45,1h-2.81Zm8.16,0h-2.44V388.46h2.44V405.1Zm14.35-9.49a4.58,4.58,0,0,1-1.2,1.52,4.92,4.92,0,0,1-1.72.91,7,7,0,0,1-2.05.3H305.4v6.75H303v-16a0.68,0.68,0,0,1,.12-0.46,0.64,0.64,0,0,1,.47-0.13h4.84a7.33,7.33,0,0,1,2.17.32,5.42,5.42,0,0,1,1.8.93,4.44,4.44,0,0,1,1.22,1.54A5.41,5.41,0,0,1,313.6,395.62Z" transform="translate(-252.95 -332.49)"/></g></svg>