<svg id="레이어_1" data-name="레이어 1" xmlns="http://www.w3.org/2000/svg" xmlns:xlink="http://www.w3.org/1999/xlink" viewBox="0 0 155.71 174.08"><defs><style>.cls-1{fill:none;}.cls-2{clip-path:url(#clip-path);}.cls-3{fill:#002b5e;}</style><clipPath id="clip-path" transform="translate(-220.64 -336.15)"><rect class="cls-1" x="195.6" y="319.26" width="203.99" height="203.99"/></clipPath></defs><title>icon-related-03</title><g class="cls-2"><path class="cls-3" d="M240.38,470.93a0.79,0.79,0,0,1,1,1c-1.33,9.28-8.36,15.45-18.51,18.51l-2.19-2.65c8.23-2.15,14.9-6.81,16.5-13.71h-14v-3.11h17.27Zm-12.2,38.34a0.79,0.79,0,0,1-1-1v-8.09a0.79,0.79,0,0,1,1-1H249.7v-4H227.22v-3h25.41a0.79,0.79,0,0,1,1,1v7.86a0.79,0.79,0,0,1-1,1H231.1v4.3h23.4v2.92H228.18Zm14.26-34.64H250v-5.58h3.61v21H250v-4.71h-8.64v-2.92H250v-4.89h-7.59v-2.92Z" transform="translate(-220.64 -336.15)"/><path class="cls-3" d="M278,478.43c7.72,0,13,2.42,13,6.12,0,3.24-4.39,5.62-11,6v2.92h16.59v2.92H259.48v-2.92H276v-2.92c-6.9-.37-11-2.65-11-6C265.06,480.44,269.77,478.43,278,478.43Zm15.36-1.69H262.64V474h30.76v2.74Zm-28,32a0.79,0.79,0,0,1-1-1v-8.82H268v6.76h25v3H265.38ZM278,481.08c-5.12,0-8.68,1-8.68,3.52,0,2.28,3.29,3.38,8.68,3.38,4.57,0,8.64-1.14,8.64-3.38C286.67,482.08,282.61,481.08,278,481.08Zm7.45-9.46H270.4v-2.79h15.08v2.79Z" transform="translate(-220.64 -336.15)"/><path class="cls-3" d="M322.19,474h-8v1.64c0,6.63,5.07,11.06,10.47,12.84l-2.29,2.65c-3.11-1.42-7.86-4.48-10.05-8.77-1.51,4.16-5.48,7.86-10.05,10l-2.7-2.42c5.85-2.42,10.83-7.17,10.83-14.4V474h-8v-3.06h19.79V474Zm-1.55,36.24c-8.32,0-13.76-3.2-13.76-8.18s5.58-8.23,13.76-8.23c8.41,0,13.85,3.25,13.85,8.23S329,510.24,320.63,510.24Zm-9.92-8.18c0,3.29,4.39,5.35,9.92,5.35,5.76,0,10.05-2.06,10.05-5.3s-4.25-5.3-10.05-5.3C315.06,496.8,310.71,498.72,310.71,502.05Zm19.47-8.46V481.31h-8.41v-3h8.41v-9.23h3.56V493.6h-3.56Z" transform="translate(-220.64 -336.15)"/><path class="cls-3" d="M371.27,491.41a0.79,0.79,0,0,1-1,1H359.57v9h16.77v3.15h-37.2v-3.15h16.68v-9H345.17a0.79,0.79,0,0,1-1-1V470.7h3.61v7.08h19.83V470.7h3.61v20.7Zm-23.44-2.19h19.83v-8.36H347.82v8.36Z" transform="translate(-220.64 -336.15)"/><path class="cls-3" d="M303.18,346l3,2.49-0.44.48-3-2.49Zm0,0" transform="translate(-220.64 -336.15)"/><path class="cls-3" d="M285.7,337.92c-2.63-3.15-7.25-1.82-7.67,1.94h0c-0.36,3.38,2.56,5.53,5.26,7.62h0s1.46,1.08,2.09,1.69a0.41,0.41,0,0,0,.29.12h0a0.4,0.4,0,0,0,.3-0.12,18.63,18.63,0,0,1,1.72-1.42l0.36-.27c2.52-2,5.64-4.16,5.24-7.62h0c-0.42-3.74-5-5.11-7.68-1.94h0Zm0,0" transform="translate(-220.64 -336.15)"/><path class="cls-3" d="M284.05,386.69c-5.12.51-9.61-.44-13.21-3.19-0.75-5.18-1.41-10.39-2-15.59-0.53-4.37-3.53-8.1-8.74-8.13-4.36,0-9.4,3.63-8.86,8,1,8.36,2.06,16.72,3.43,25l-15.75,28.29,19.65,0.3V445.9c0,6.95,11.73,6.95,11.73,0V421.62l3.63,0.06-0.09-27.2a27.72,27.72,0,0,0,10.26.82c5.94-.59,6-9.21,0-8.61h0Zm0,0" transform="translate(-220.64 -336.15)"/><path class="cls-3" d="M312.13,343.07l0.46,0.46-2.93,2.61-0.45-.47Zm0,0" transform="translate(-220.64 -336.15)"/><path class="cls-3" d="M307.67,341.37l0.3,3.81-0.64.05-0.3-3.82Zm0,0" transform="translate(-220.64 -336.15)"/><path class="cls-3" d="M342.34,357.91c2.82,1.6,12.22,6.93,13.75,7.78s-3.15,3.71-3.3,6.82c-0.19,4.24,2.32,1.3,2.32,1.3l1.45-2.32c3.17-5.14,5.75-9.3.56-12.24l-3.22-1.81s-3.79-1.37-7.47-11.06c-2.58,2.91-.2,6.72-0.2,6.72s-2.93-4.11-4.17-3.78c0,0-2.54,7,.29,8.61h0Zm0,0" transform="translate(-220.64 -336.15)"/><path class="cls-3" d="M364.75,435.46l-15.3-4.74c-8.33-3.23-9.72-8.17-10.24-9.75,0.67-1.31.52-4.66,0.52-4.77-0.18-8,.19-19.72,7.09-25.2,4.18-3.32,3.5-10.12-.08-13.52a9.52,9.52,0,0,0-7.48-2.64c-6.74-5-13.66-9.78-20.72-14.38V342h-4.12v11.77h-2.65a4.11,4.11,0,0,0,.44-1.82,4.27,4.27,0,0,0-2.18-3.65L307.7,346l-2.27,2.31a4.25,4.25,0,0,0-2.16,3.65,3.94,3.94,0,0,0,.44,1.81h-1.22v6.76h4.14a6.31,6.31,0,0,0,2,8.83c6.54,4.2,21.7,14.86,22.6,15.54l-6.93,9.32,0.47-6.62c-3.35,6.91-4.68,15.14-5,22.64-3.12-.07-6.24-0.1-9.36-0.12-2.68,0-6,1.93-6.4,4.69-1.87,12,1.63,23.36,8.64,33.36,4.75,6.78,16.28.41,11.47-6.43-3.89-5.56-7.16-12-7.53-18.82,2.17,0,4.36.07,6.54,0.16a10.48,10.48,0,0,0,3.39,1.74c2.58,7.5,7.53,14.5,15.59,17q9.5,3,19,5.91c8.18,2.53,11.67-9.77,3.54-12.28h0Zm-54-81.65h-6a3.25,3.25,0,0,1-.56-1.81,3.42,3.42,0,0,1,2.08-3.08h3a3.28,3.28,0,0,1,1.51,4.89h0Zm13.13,54c-0.73,0-1.33-1.14-1.33-2.55s0.6-2.55,1.33-2.55,1.33,1.13,1.33,2.55-0.6,2.55-1.33,2.55h0Zm0.67-5.73c-0.73,0-1.33-1.14-1.33-2.56s0.6-2.54,1.33-2.54,1.33,1.13,1.33,2.54-0.6,2.56-1.33,2.56h0Zm0,0" transform="translate(-220.64 -336.15)"/><path class="cls-3" d="M236.58,368.33c5,0.42,7.12-2.67,7.78-7.48,0.81-6.73-.83-11.3.45-15.57,1,0.11,2,.3,3,0.48a10.25,10.25,0,0,0-.49,3.14,10.61,10.61,0,1,0,10.6-10.39,10.72,10.72,0,0,0-7.14,2.71c-7.53-7.95-16.6-3.32-13.13,6.27,4.29,11.82,6.8,19.79-1,20.83h0Zm0,0" transform="translate(-220.64 -336.15)"/><path class="cls-3" d="M231.66,378a2.72,2.72,0,0,0-4.93,1.24h0c-0.25,2.18,1.65,3.53,3.37,4.88a14.14,14.14,0,0,0,1.54,1.17,18.93,18.93,0,0,0,1.52-1.17c1.75-1.34,3.58-2.69,3.37-4.89h0a2.71,2.71,0,0,0-4.92-1.23h0Zm0,0" transform="translate(-220.64 -336.15)"/></g></svg>