<svg id="레이어_1" data-name="레이어 1" xmlns="http://www.w3.org/2000/svg" xmlns:xlink="http://www.w3.org/1999/xlink" viewBox="0 0 100.05 177.8"><defs><style>.cls-1{fill:none;}.cls-2{clip-path:url(#clip-path);}.cls-3{fill:#002b5e;}</style><clipPath id="clip-path" transform="translate(-245.28 -334.57)"><rect class="cls-1" x="195.58" y="318.53" width="203.99" height="203.99"/></clipPath></defs><title>icon-related-02</title><g class="cls-2"><path class="cls-3" d="M257.1,509.49V495.78c-2.7,0-5.67,0-7.81,0v-3.15h8.59a89.38,89.38,0,0,0,12.2-1v3.06a58.39,58.39,0,0,1-9.51,1v13.8H257.1Zm2.29-20.25c-5.16,0-8.82-3.47-8.82-8.45s3.61-8.55,8.82-8.55,8.82,3.61,8.82,8.55S264.51,489.24,259.39,489.24Zm0-2.92a5.16,5.16,0,0,0,5.35-5.53,5.4,5.4,0,1,0-10.79,0A5.28,5.28,0,0,0,259.39,486.32Zm15.9-14.4v37.84h-3.52v-7.17h-7.4v-3.06h7.4v-27.6h3.52Zm7.77-.69v40.44h-3.52V471.24h3.52Z" transform="translate(-245.28 -334.57)"/><path class="cls-3" d="M305.28,473.07h18.05v3.06h-15.4v11.52h2.83a102.36,102.36,0,0,0,18.37-1.55v3.11a112.73,112.73,0,0,1-20,1.6h-3.84c-0.78,0-1-.18-1-0.91V474A0.79,0.79,0,0,1,305.28,473.07Zm2,31.17c0-4.94,5.39-8.18,13.94-8.18s14,3.29,14,8.23-5.35,8.09-14,8.09S307.24,509.22,307.24,504.23Zm3.79,0c0,3.29,4.21,5.3,10.15,5.3s10.19-2,10.19-5.16S327.12,499,321.18,499,311,500.9,311,504.19Zm20-8.77V471.19h3.65v24.22h-3.65Z" transform="translate(-245.28 -334.57)"/><path class="cls-3" d="M344.85,400.62L329.7,376.36l2.31-3.08-7.7-9.79a10.27,10.27,0,1,0-17-.15l-6.71,10.07,3,2.56-14.53,22.72s-1.12,3,.38,4.49c1.8,1.73,4.43.26,4.43,0.26l11.17-17.33,2.57,3.47s-11.81,30-13.22,33.76,2.57,4.49,2.57,4.49h9.94s-0.15,20.81-.15,21.25a4,4,0,0,0,4.07,4,4.1,4.1,0,0,0,4.13-4c0-.27.05-21.25,0.05-21.25h3s0,21.22,0,21.25a4.07,4.07,0,0,0,8.13,0c0-.09,0-21.38,0-21.38h9.59c5.26,0,2.44-5.65,2.44-5.65L325,390.74l2.82-3.85L338,403.19s3.46,3.85,5.9,2.05S344.85,400.62,344.85,400.62ZM321.62,390l14,34.53H296.45l14.72-34.75s-4.57-5.49-4.57-8.32c0-1.61,2-6,9.88-5.9,8.08,0.13,9.56,4.62,9.56,5.9C326,384.06,321.62,390,321.62,390ZM328.29,374s-4.49-3.72-12.45-3.72S305.31,374,305.31,374l-1-.77,5-7.71s2.89,3,6.42,3a11.12,11.12,0,0,0,6.93-3l6.35,7.57Z" transform="translate(-245.28 -334.57)"/><path class="cls-3" d="M296.35,334.92a6.92,6.92,0,0,0-7.43,2.48c-0.51-.66-3.57-4-7.79-2.42-5,1.82-4.87,7.63-2.25,12.18,2.37,4.1,9.47,9,10,9.4,0,0,7.68-5.3,10.05-9.4C301.57,342.61,300.72,336.15,296.35,334.92Zm-13.57,3.44a2.16,2.16,0,0,0-1.62.92,2.38,2.38,0,0,0-.51,1.46,2,2,0,0,0,.11.69v0h0a0.78,0.78,0,0,1-.38,1,0.77,0.77,0,0,1-1-.38,3.4,3.4,0,0,1-.26-1.34,3.94,3.94,0,0,1,.82-2.39,3.66,3.66,0,0,1,2.85-1.53h0.09A0.77,0.77,0,0,1,282.78,338.36Z" transform="translate(-245.28 -334.57)"/><circle class="cls-3" cx="19.64" cy="51.42" r="1.28"/><circle class="cls-3" cx="19.64" cy="46.84" r="1.28"/><circle class="cls-3" cx="19.55" cy="22.29" r="10.93"/><circle class="cls-3" cx="19.64" cy="42.56" r="1.28"/><path class="cls-3" d="M292.32,397.92l-11.88-22.51c-0.4-1.12-4.13-5.11-6.3-5.48-3.62,8.43-9.09,22.55-9.09,22.55s-5.13-12.58-9.65-22.66c-5.37.79-10.07,2.9-10,8.28,0,0-.16,30.92-0.16,31,0,2.2,1.36,4,3.55,4s3.37-1.78,3.37-4c0-.1.15-25.83,0.12-26.37s1.87-1.59,1.87.39L254.4,406h0l0.44,41.26s0,0.07,0,.1c0,2.18,2.4,3.95,4.57,3.95a4.31,4.31,0,0,0,4.35-3.95h0V409.56l0.64-.2,1.35,0.17v37.88h0c0,2.18,2.57,3.95,4.81,3.95a4.23,4.23,0,0,0,4.3-3.95h0V383.1c0.11-3.31-.91-2.48,1.55,0,0.43,0.43,9.91,17.52,9.91,17.52s2.82,5.16,6.09,2.59C294.7,401.41,292.32,397.92,292.32,397.92Z" transform="translate(-245.28 -334.57)"/><polygon class="cls-3" points="24.56 34.39 19.09 37.47 14.04 34.39 14.01 41.92 19.17 38.32 24.56 41.83 24.56 34.39"/></g></svg>