<svg id="레이어_1" data-name="레이어 1" xmlns="http://www.w3.org/2000/svg" xmlns:xlink="http://www.w3.org/1999/xlink" viewBox="0 0 102.16 171.47"><defs><style>.cls-1{fill:none;}.cls-2{clip-path:url(#clip-path);}.cls-3{fill:#002b5e;}</style><clipPath id="clip-path" transform="translate(-244.22 -338.94)"><rect class="cls-1" x="195.58" y="319.26" width="203.99" height="203.99"/></clipPath></defs><title>icon-related-07</title><g class="cls-2"><path class="cls-3" d="M252.25,485.42c0-10.69,4.43-15.4,10.05-15.4,3.66,0,6.9,2.19,8.64,6.81h9.28v-7.77h3.61v40.58h-3.61v-15.9H271c-1.69,4.75-5,7.08-8.73,7.08C256.73,500.82,252.25,495.88,252.25,485.42Zm3.56,0c0,6.58,2.06,12.16,6.49,12.16s6.4-5.62,6.4-12.16-2-12.16-6.4-12.16S255.81,479,255.81,485.42Zm16-5.48a28,28,0,0,1,.5,5.48,29.65,29.65,0,0,1-.41,5.16h8.32V479.93h-8.41Z" transform="translate(-244.22 -338.94)"/><path class="cls-3" d="M304.63,474.91h18.83v2.83H304.63v-2.83Zm9.37,4.52c5.12,0,8.59,2.7,8.59,6.9s-3.61,6.95-8.59,6.95-8.64-2.88-8.64-6.95S308.88,479.43,314,479.43Zm0,2.56c-3.38,0-5.3,1.69-5.3,4.39s1.92,4.39,5.3,4.39,5.21-1.78,5.21-4.39S317.24,482,314,482Zm4.85-9.6h-9.69v-2.83h9.69v2.83Zm-8.91,30.34c0-4.39,4.94-7.63,14.35-7.63s14.12,3.24,14.12,7.63-4.75,7.68-14.12,7.68C314.72,510.42,309.93,507.17,309.93,502.74Zm3.88,0c0,3,4.21,4.84,10.46,4.84s10.28-1.87,10.28-4.8c0-3.11-4.16-4.8-10.28-4.8S313.81,499.68,313.81,502.74Zm16-33v10.37h5v-11.1h3.47V495.2h-3.47V483.36h-5v10.51h-3.47V469.79h3.47Z" transform="translate(-244.22 -338.94)"/><path class="cls-3" d="M322.16,351.32c0,6.84-5.87,12.38-13.13,12.38s-13.12-5.54-13.12-12.38,5.87-12.38,13.12-12.38,13.13,5.54,13.13,12.38h0Zm0,0" transform="translate(-244.22 -338.94)"/><path class="cls-3" d="M341.8,381.51c-11.73-1.14-23.1-13.11-26-14.76a14.23,14.23,0,0,0-5.82-2.27,11,11,0,0,0-2.87-.12,12,12,0,0,0-6.63,2.4,20.5,20.5,0,0,0-2.31,2c-3.87,3.78-14.6,15-19.94,27.62a4.6,4.6,0,0,0,1,5.07L273,412l-8.83-4.68a2.26,2.26,0,0,0-3,.79L244.5,435.94a2,2,0,0,0,.84,2.81L252,442.3a4.53,4.53,0,0,0,.8,5.63,5.23,5.23,0,0,0,7.1.05,4.53,4.53,0,0,0,.43-6.29l9.13-15.1,6.39-10.74,7.93-13a5,5,0,0,0,3.94-3,66.69,66.69,0,0,1,9.14-14.81l1.59,17.25a8.17,8.17,0,0,0,2.41,5.07c-4.11,7-15.15,26.21-19.14,32.73a5.93,5.93,0,0,0,2.38,8.35,6.81,6.81,0,0,0,3.7.8,6.54,6.54,0,0,0,5.16-3c3.71-6.07,13.41-24.51,17.66-31.44a273.54,273.54,0,0,1,16.58,30.86,6.51,6.51,0,0,0,5.94,3.64,6.75,6.75,0,0,0,2.63-.53,6,6,0,0,0,3.3-8.06C330.4,422.24,324,412,320.46,406.54a8.16,8.16,0,0,0,2-6.14L321,384.06c4.37,3.29,10.06,6.05,19.79,7l0.53,0a5,5,0,0,0,5.06-4.31,4.89,4.89,0,0,0-4.55-5.27h0Zm-85.5,65a1.73,1.73,0,1,1,1.83-1.72,1.78,1.78,0,0,1-1.83,1.72h0Zm0,0" transform="translate(-244.22 -338.94)"/></g></svg>