<svg id="레이어_1" data-name="레이어 1" xmlns="http://www.w3.org/2000/svg" xmlns:xlink="http://www.w3.org/1999/xlink" viewBox="0 0 154.52 148.12"><defs><style>.cls-1{fill:none;}.cls-2{clip-path:url(#clip-path);}.cls-3{fill:#002b5e;}</style><clipPath id="clip-path" transform="translate(-221.29 -359.52)"><rect class="cls-1" x="195.6" y="318.72" width="203.99" height="203.99"/></clipPath></defs><title>icon-related-08</title><g class="cls-2"><path class="cls-3" d="M221.29,483.24c0-10.69,4.43-15.4,10.05-15.4,5.07,0,9.37,4.2,10,13.25h8V466.92h3.57v40.58h-3.57V484.34h-7.91c-0.32,9.64-4.71,14.3-10,14.3C225.77,498.64,221.29,493.71,221.29,483.24Zm3.56,0c0,6.58,2.06,12.16,6.49,12.16s6.4-5.62,6.4-12.16-2-12.16-6.4-12.16S224.85,476.84,224.85,483.24Z" transform="translate(-221.29 -359.52)"/><path class="cls-3" d="M260.5,472.36h23.21v2.88H260.5v-2.88Zm11.56,5.07c6,0,10.05,2.83,10.05,6.95s-4.25,7-10.05,7-10.05-3-10.05-7S266.12,477.44,272.06,477.44ZM290.89,495a0.79,0.79,0,0,1,1,1v11.7h-3.66v-9.51H265.34V495h25.55Zm-18.83-14.81c-4,0-6.35,1.69-6.35,4.2s2.38,4.3,6.35,4.3,6.35-1.83,6.35-4.3S276,480.18,272.06,480.18ZM278,469.76H266v-2.92h12v2.92Zm19.47,11.84h-5.62v11.2h-3.56V466.92h3.56v11.52h5.62v3.15Z" transform="translate(-221.29 -359.52)"/><path class="cls-3" d="M311,489a10.86,10.86,0,0,1,0-21.71,10.36,10.36,0,0,1,8.64,4.34h9.46v-4.75h3.56v29.75H329.1V484.11h-9A10.41,10.41,0,0,1,311,489Zm0-3.29c4.39,0,6.95-3.38,6.95-7.54s-2.56-7.63-6.95-7.63-6.95,3.38-6.95,7.63S306.61,485.75,311,485.75Zm-3.66,20.84a0.79,0.79,0,0,1-1-1V493.38h3.7v10.1h23.67v3.11H307.34Zm13.85-31.85a12.25,12.25,0,0,1,.5,3.47,11.75,11.75,0,0,1-.37,2.83h7.77v-6.31h-7.91Z" transform="translate(-221.29 -359.52)"/><path class="cls-3" d="M375.8,492.42H359.26v15.08h-3.7V492.42H338.74v-3.11H375.8v3.11Zm-35.37-10.37c9.87-2.42,14.81-6.44,14.81-12v-2.15h4V470c0,6.4,7.27,10.46,14.67,12l-2.29,2.88c-5.67-1.51-12.25-4.84-14.35-9.64-2.65,5.12-8.59,8-14.35,9.64Z" transform="translate(-221.29 -359.52)"/><polygon class="cls-3" points="77.26 39.98 134.08 17.53 77.26 0 20.44 17.53 77.26 39.98"/><path class="cls-3" d="M270.09,390.64l-6.71,30c0,6.68,19,12.69,35.17,12.69s35.17-6,35.17-12.69l-6.71-30-28.46,11.24Z" transform="translate(-221.29 -359.52)"/><polygon class="cls-3" points="38.27 71.28 36.28 71.28 36.28 23.57 76.92 16.55 77.25 18.52 38.27 25.25 38.27 71.28"/><ellipse class="cls-3" cx="77.08" cy="17.53" rx="4.21" ry="2.28"/><rect class="cls-3" x="35.44" y="67.6" width="3.68" height="4.82"/><path class="cls-3" d="M259.83,431.32s6.45,2.39,2.35,11.14a12.07,12.07,0,0,1-12.65,7.26s4.39,0.28,4.14-6.26-1-11,4.42-12.42Z" transform="translate(-221.29 -359.52)"/></g></svg>