<svg id="레이어_1" data-name="레이어 1" xmlns="http://www.w3.org/2000/svg" xmlns:xlink="http://www.w3.org/1999/xlink" viewBox="0 0 155.89 163.36"><defs><style>.cls-1{fill:none;}.cls-2{clip-path:url(#clip-path);}.cls-3{fill:#002b5e;}</style><clipPath id="clip-path" transform="translate(-217.65 -344.42)"><rect class="cls-1" x="195.58" y="318.72" width="203.99" height="203.99"/></clipPath></defs><title>icon-related-05</title><g class="cls-2"><path class="cls-3" d="M217.65,477.89a10.67,10.67,0,1,1,10.69,10.46A10.36,10.36,0,0,1,217.65,477.89Zm3.79,0c0,3.93,2.51,7.17,6.95,7.17s6.86-3.25,6.86-7.17-2.47-7.18-6.86-7.18S221.45,473.92,221.45,477.94Zm1,15.08H248a0.79,0.79,0,0,1,1,1v13.8h-3.61V496.22h-22.9V493Zm32-9.46H249v7.27h-3.61v-23.9H249v4.8h5.48v3.06H249v5.67h5.48v3.11Z" transform="translate(-217.65 -344.42)"/><path class="cls-3" d="M269.16,478v9.64a128,128,0,0,0,15.08-1.23v3.06a157.85,157.85,0,0,1-22.12,1.33h-5v-3.15h8.55V478h3.47Zm9.87-9.41a0.79,0.79,0,0,1,1,1,94.59,94.59,0,0,1-1.69,13.94h-3.56a97.65,97.65,0,0,0,1.51-11.75H259.7v-3.15H279Zm-14.3,38a0.79,0.79,0,0,1-1-1V494.53h3.61v9h23.21v3.11H264.73Zm21-9V466.92h3.56v13h5.57v3.2h-5.57v14.4H285.7Z" transform="translate(-217.65 -344.42)"/><path class="cls-3" d="M301,469.48h12.79v3.06H303.57V493.8h0.87a84.68,84.68,0,0,0,12-.91V496a87.14,87.14,0,0,1-13.3,1.05H301c-0.78,0-1-.18-1-0.91V470.44A0.79,0.79,0,0,1,301,469.48Zm21-1.87v13.8h5.39V466.92h3.52v40.49h-3.52V484.88h-5.39V505.5h-3.47V467.61h3.47Z" transform="translate(-217.65 -344.42)"/><path class="cls-3" d="M368.52,492.7v7a0.79,0.79,0,0,1-1,1H345.3v3.7h24.22V507h-27.1a0.79,0.79,0,0,1-1-1v-7a0.79,0.79,0,0,1,1-1h22.35v-3.66H341.46v-2.7h11.61v-4.07H336.48v-2.74h37.06v2.74H356.86v4.07h10.69A0.79,0.79,0,0,1,368.52,492.7ZM340.82,472h28.33v2.65H357.59c1,1.65,2.88,2.83,5.35,3.66A47.46,47.46,0,0,0,371.3,480a33.4,33.4,0,0,0-2.15,2.74,38,38,0,0,1-7.4-1.83c-2.79-1-5.3-2.38-6.67-4.3a14.69,14.69,0,0,1-5.89,3.93,39.14,39.14,0,0,1-8.32,2.19c-0.64-.82-1.46-1.87-2.2-2.74A39.93,39.93,0,0,0,347,478.3c2.61-.87,4.52-2.06,5.39-3.61H340.82V472Zm6.72-5.53h14.85v2.65H347.54v-2.65Z" transform="translate(-217.65 -344.42)"/><path class="cls-3" d="M300.76,362.88a1.37,1.37,0,1,0,0,2.72H322.3a1.37,1.37,0,1,0,0-2.72H300.76Z" transform="translate(-217.65 -344.42)"/><path class="cls-3" d="M320.07,360.79c1-5,4.8-11.84,4.8-11.84s-16-6.86-19.73-3.69c-1.49,1.29,2.2,6.18.82,7.6s-7.77,0-7.77,0a47.47,47.47,0,0,1,3.67,7.93h18.22Z" transform="translate(-217.65 -344.42)"/><path class="cls-3" d="M323,367.62a3,3,0,0,1-.65.06H300.76a3.67,3.67,0,0,1-1.1-.17c-14,12.55-22,31-23,43.26a15.08,15.08,0,1,0,13.59,24.39,40.09,40.09,0,0,0,21.25,6.14c18.09,0,35-12.6,35-28.14C346.48,400.89,338.13,382.64,323,367.62ZM287,426.12a0.48,0.48,0,0,1-.07.31,0.49,0.49,0,0,1-.34.08h-2.15l-0.75,3.3L283,433.13a0.33,0.33,0,0,1-.13.25,1,1,0,0,1-.34,0h-1.7a0.64,0.64,0,0,1-.32-0.05,0.41,0.41,0,0,1-.11-0.24l-1.42-6.62H277.7l-1.4,6.62a0.41,0.41,0,0,1-.11.24,0.65,0.65,0,0,1-.32.05h-1.72a0.7,0.7,0,0,1-.34-0.05,0.41,0.41,0,0,1-.11-0.24l-1.52-6.62H270a0.48,0.48,0,0,1-.31-0.07,0.44,0.44,0,0,1-.08-0.32v-1.48a0.44,0.44,0,0,1,.08-0.32,0.5,0.5,0,0,1,.31-0.07h1.68l-1-4.65a0.34,0.34,0,0,1,.43-0.49h1.56a1.1,1.1,0,0,1,.29,0,0.3,0.3,0,0,1,.13.26l1,4.84H276l1-4.84a0.32,0.32,0,0,1,.14-0.25,0.92,0.92,0,0,1,.31,0h1.82a1,1,0,0,1,.31,0,0.32,0.32,0,0,1,.14.25l1,4.84h1.91l1-4.84a0.34,0.34,0,0,1,.12-0.25,0.83,0.83,0,0,1,.31,0h1.58a0.44,0.44,0,0,1,.36.09,0.74,0.74,0,0,1,0,.4l-1,4.65h1.6a0.31,0.31,0,0,1,.41.39v1.48Zm24.49-2.68c-9.61,0-17.38-7.33-17.38-16.37s7.79-16.35,17.38-16.35,17.4,7.32,17.4,16.35S321.13,423.44,311.52,423.44Z" transform="translate(-217.65 -344.42)"/><path class="cls-3" d="M321.31,404.35l1.37-6.67a1.09,1.09,0,0,0,0-.57,0.62,0.62,0,0,0-.52-0.13h-2.27a1.16,1.16,0,0,0-.45.06,0.5,0.5,0,0,0-.17.36l-1.46,7h-2.75l-1.45-7a0.45,0.45,0,0,0-.2-0.36A1.31,1.31,0,0,0,313,397h-2.6a1.31,1.31,0,0,0-.45.06,0.45,0.45,0,0,0-.2.36l-1.4,7h-2.69l-1.49-7A0.45,0.45,0,0,0,304,397a1.83,1.83,0,0,0-.42,0H301.3a0.48,0.48,0,0,0-.62.7l1.46,6.67h-2.41a0.74,0.74,0,0,0-.45.09,0.65,0.65,0,0,0-.12.46V407a0.62,0.62,0,0,0,.12.46,0.7,0.7,0,0,0,.45.1h3.14l2.19,9.5a0.59,0.59,0,0,0,.15.35,1,1,0,0,0,.49.07h2.46a1,1,0,0,0,.46-0.07,0.59,0.59,0,0,0,.15-0.35l2-9.5h1.79l2,9.5a0.58,0.58,0,0,0,.15.35,1,1,0,0,0,.46.07h2.44a1.37,1.37,0,0,0,.49-0.06,0.46,0.46,0,0,0,.19-0.36l2.16-9.5h3.08a0.7,0.7,0,0,0,.49-0.11,0.72,0.72,0,0,0,.1-0.45V404.9a0.73,0.73,0,0,0-.1-0.45,0.7,0.7,0,0,0-.49-0.11h-2.3ZM307,411.77l-0.7-4.18h1.4Zm4.31-7.42,0.37-2.33,0.39,2.33h-0.76Zm5.1,7.45-0.73-4.2h1.43Z" transform="translate(-217.65 -344.42)"/><path class="cls-3" d="M245.32,417.93h15.76a19,19,0,0,1,3-4.75h-18.8a1.21,1.21,0,0,0-1.21,1.21v2.33A1.21,1.21,0,0,0,245.32,417.93Z" transform="translate(-217.65 -344.42)"/><path class="cls-3" d="M245.32,433.18h15.59a19.07,19.07,0,0,1-1.3-4.75H245.32a1.21,1.21,0,0,0-1.21,1.21V432A1.21,1.21,0,0,0,245.32,433.18Z" transform="translate(-217.65 -344.42)"/><path class="cls-3" d="M245.32,425.55H259.4a18.93,18.93,0,0,1,.66-4.75H245.32a1.21,1.21,0,0,0-1.21,1.21v2.33A1.21,1.21,0,0,0,245.32,425.55Z" transform="translate(-217.65 -344.42)"/><path class="cls-3" d="M245.32,410.3h21.94a19,19,0,0,1,7-3.22v-0.32a1.21,1.21,0,0,0-1.21-1.21H245.32a1.21,1.21,0,0,0-1.21,1.21v2.33A1.21,1.21,0,0,0,245.32,410.3Z" transform="translate(-217.65 -344.42)"/><rect class="cls-3" x="26.45" y="45.87" width="30.2" height="4.75" rx="1.21" ry="1.21"/><rect class="cls-3" x="26.45" y="53.5" width="30.2" height="4.75" rx="1.21" ry="1.21"/><polygon class="cls-3" points="57.43 85 57.92 82.09 56.94 82.09 57.43 85"/><polygon class="cls-3" points="60.44 79.82 60.96 79.82 60.69 78.2 60.44 79.82"/><path class="cls-3" d="M262.45,436.06H245.32a1.21,1.21,0,0,0-1.21,1.21v2.33a1.22,1.22,0,0,0,1.21,1.21H266.8A19.28,19.28,0,0,1,262.45,436.06Z" transform="translate(-217.65 -344.42)"/><polygon class="cls-3" points="63.52 82.31 63.99 85.02 64.27 83.32 64.48 82.09 63.48 82.09 63.52 82.31"/></g></svg>