<svg id="레이어_1" data-name="레이어 1" xmlns="http://www.w3.org/2000/svg" xmlns:xlink="http://www.w3.org/1999/xlink" viewBox="0 0 154.56 162.14"><defs><style>.cls-1{fill:none;}.cls-2{clip-path:url(#clip-path);}.cls-3{fill:#002b5e;}</style><clipPath id="clip-path" transform="translate(-219.02 -350.25)"><rect class="cls-1" x="195.58" y="318.99" width="203.99" height="203.99"/></clipPath></defs><title>icon-related-04</title><g class="cls-2"><path class="cls-3" d="M219,488c0-10.69,4.43-15.4,10.05-15.4,5.07,0,9.37,4.2,10,13.25h8V471.67h3.56v40.58H247V489.08h-7.91c-0.32,9.64-4.71,14.3-10,14.3C223.5,503.39,219,498.45,219,488Zm3.56,0c0,6.58,2.06,12.16,6.49,12.16s6.4-5.62,6.4-12.16-2-12.16-6.4-12.16S222.59,481.59,222.59,488Z" transform="translate(-219.02 -350.25)"/><path class="cls-3" d="M258.24,477.11h23.21V480H258.24v-2.88Zm11.56,5.07c6,0,10.05,2.83,10.05,6.95s-4.25,7-10.05,7-10.05-3-10.05-7S263.86,482.18,269.8,482.18Zm18.83,17.55a0.79,0.79,0,0,1,1,1v11.7h-3.65v-9.51H263.08v-3.15h25.55ZM269.8,484.92c-4,0-6.35,1.69-6.35,4.2s2.38,4.3,6.35,4.3,6.35-1.83,6.35-4.3S273.78,484.92,269.8,484.92Zm5.94-10.42h-12v-2.92h12v2.92Zm19.47,11.84h-5.62v11.2H286V471.67h3.56v11.52h5.62v3.15Z" transform="translate(-219.02 -350.25)"/><path class="cls-3" d="M308.23,484.15a30.65,30.65,0,0,1-6.63.55H299V482H304a28.54,28.54,0,0,0,5.76-.46,18.55,18.55,0,0,0,1.51-5.12H300v-3h14.21a0.79,0.79,0,0,1,1,1c-0.91,9.28-6.35,16.09-15,20l-2.65-2.38A22,22,0,0,0,308.23,484.15Zm-2.83,12.57h24.82a0.79,0.79,0,0,1,1,1v13.07a0.79,0.79,0,0,1-1,1H305.4a0.79,0.79,0,0,1-1-1V497.67A0.79,0.79,0,0,1,305.4,496.71Zm2.61,12h19.65v-9H308v9Zm14.53-36.33v8.87h5.12v-9.6h3.52v22.8h-3.52v-9.78h-5.12v9.78h-3.47V472.4h3.47Z" transform="translate(-219.02 -350.25)"/><path class="cls-3" d="M336.39,503.48h37.2v3.11h-37.2v-3.11Zm32.9-26.55h-4.52c0,4.84-.18,9.6-0.23,14.44h5.76v3.11H339.59v-3.11h5.71c0-4.84-.14-9.6-0.18-14.44h-4.53v-3.06h28.7v3.06ZM361,491.37c0.09-4.84.14-9.6,0.23-14.44H348.73c0.09,4.84.14,9.64,0.18,14.44H361Z" transform="translate(-219.02 -350.25)"/><path class="cls-3" d="M309.63,387.56A15.53,15.53,0,0,1,296,395.75h-2.21v9a3.21,3.21,0,0,1-6.42,0v-9H256.79v9a3.21,3.21,0,0,1-6.42,0v-9h-2a15.7,15.7,0,0,1-13.73-8.19,12.59,12.59,0,0,0-7.51,11.72v14.85c0,6.93,5.25,12.51,11.72,12.51h-0.1v-6.12h66.67v6.12h0.11c6.47,0,11.51-5.58,11.51-12.51V399.28a12.5,12.5,0,0,0-7.41-11.72h0Zm0,0" transform="translate(-219.02 -350.25)"/><path class="cls-3" d="M251.46,438.87h41.46a12.77,12.77,0,0,0,12.59-12.23H238.86a12.77,12.77,0,0,0,12.6,12.23h0Zm0,0" transform="translate(-219.02 -350.25)"/><path class="cls-3" d="M261.82,360.59H248.38a9.65,9.65,0,0,0-9.63,9.56V380a9.73,9.73,0,0,0,9.63,9.65h2V377.71a3.21,3.21,0,0,1,6.42,0v11.93h30.58V377.71a3.21,3.21,0,0,1,6.42,0v11.93H296a9.55,9.55,0,0,0,9.42-9.65v-9.84a9.47,9.47,0,0,0-9.42-9.56H282.55a10.63,10.63,0,0,0-2-6.14,10.37,10.37,0,0,0-16.66,0,10.64,10.64,0,0,0-2,6.15h0Zm14.57,0H268a4.2,4.2,0,0,1,8.4,0h0Zm0,0" transform="translate(-219.02 -350.25)"/><path class="cls-3" d="M330.92,421.57h28.93a3.62,3.62,0,0,0,3.62-3.62V381.79a3.62,3.62,0,0,0-3.62-3.62h-7.23v14.47L347.2,389l-5.42,3.62V378.17H327.31a7.23,7.23,0,0,0-7.23,7.23v39.79A10.86,10.86,0,0,0,330.92,436h28.93a3.62,3.62,0,1,0,0-7.23H330.92a3.62,3.62,0,0,1,0-7.23h0Zm0,0" transform="translate(-219.02 -350.25)"/></g></svg>