<svg id="레이어_1" data-name="레이어 1" xmlns="http://www.w3.org/2000/svg" xmlns:xlink="http://www.w3.org/1999/xlink" viewBox="0 0 116.9 178.07"><defs><style>.cls-1{fill:none;}.cls-2{clip-path:url(#clip-path);}.cls-3{fill:#002b5e;}</style><clipPath id="clip-path" transform="translate(-239.51 -334.18)"><rect class="cls-1" x="195.6" y="318.99" width="203.99" height="203.99"/></clipPath></defs><title>icon-related-01</title><g class="cls-2"><path class="cls-3" d="M267.11,490.54a79.45,79.45,0,0,1-13.66.91h-9.87V488.4h12.25a94.8,94.8,0,0,0,11.7-.55,67.75,67.75,0,0,0,.91-10H244.22v-3.11h27a0.79,0.79,0,0,1,1,1A137.24,137.24,0,0,1,268,503.39h8.68v3.11h-37.2v-3.11h25C265.38,499.55,266.34,495.07,267.11,490.54Z" transform="translate(-239.51 -334.18)"/><path class="cls-3" d="M296.32,512.25v-12.8h-17v-3.11h37.2v3.11H300v12.8h-3.7ZM285.53,492a0.79,0.79,0,0,1-1-1v-9.14a0.79,0.79,0,0,1,1-1h22v-5h-23v-3h25.59a0.79,0.79,0,0,1,1,1V483a0.79,0.79,0,0,1-1,1h-22v5h23.95v3H285.53Z" transform="translate(-239.51 -334.18)"/><path class="cls-3" d="M319.22,503.52h37.2v3.11h-37.2v-3.11Zm33-8.13c-4.94-1.55-12.07-5.8-14.4-11.2-2.29,5.3-8.27,8.91-14.4,11.24l-2.74-2.83c8.13-2.42,15.08-6.81,15.08-14.3V477h-12v-3.11h28.06V477h-12v1.33c0,7.4,8.09,12.48,14.94,14.26Z" transform="translate(-239.51 -334.18)"/><path class="cls-3" d="M303.17,338.27c0-2.18-2.39-4.09-5.1-4.09s-5.11,1.91-5.11,4.09V354.6h10.21V338.27Z" transform="translate(-239.51 -334.18)"/><path class="cls-3" d="M290.91,358.69H279c-3,0-6.42,1.4-6.42,4.39v21.45l24-10.81,1.66-.75,1.66,0.77,21.68,9.53V363.08c0-3-1.41-4.39-4.39-4.39H290.91Z" transform="translate(-239.51 -334.18)"/><polygon class="cls-3" points="40.97 87.82 77.31 87.82 100.37 62.08 85.83 55.51 83.99 54.68 81.97 53.77 58.72 43.27 33.54 54.91 31.31 55.94 29.83 56.63 17.81 62.18 40.97 87.82"/><path class="cls-3" d="M248,431.21c2,0,4.23,1.28,6.2,3.2,2.25,2.21,5.06,5,10.49,5s8.22-2.75,10.47-5c2-1.93,3.28-3.2,6.19-3.2s4.23,1.28,6.2,3.2c2.26,2.21,5.06,5,10.48,5s8.22-2.75,10.47-5c2-1.93,3.28-3.2,6.19-3.2s4.23,1.28,6.2,3.21c2.25,2.21,5.06,5,10.48,5s8.24-2.75,10.5-5c2-1.94,4.15-3.21,6.2-3.21v-6.13c-6.12,0-8.24,2.75-10.49,5-2,1.93-3.28,3.21-6.21,3.21s-4.22-1.28-6.19-3.21a16.23,16.23,0,0,0-6.35-4.31,13.1,13.1,0,0,0-4.14-.65,12.78,12.78,0,0,0-5.14,1,17.43,17.43,0,0,0-5.34,4c-2,1.92-3.27,3.2-6.19,3.2s-4.22-1.28-6.19-3.2a17.47,17.47,0,0,0-5.35-4,12.76,12.76,0,0,0-5.14-1,13.47,13.47,0,0,0-3.11.37c-3.46.8-5.6,2.85-7.37,4.6-2,1.92-3.28,3.2-6.19,3.2s-4.23-1.28-6.2-3.2c-2.25-2.21-4.36-5-10.48-5v6.13Z" transform="translate(-239.51 -334.18)"/><path class="cls-3" d="M248,445.5c2,0,4.23,1.28,6.2,3.21,2.25,2.21,5.06,5,10.49,5s8.22-2.74,10.47-5c2-1.94,3.28-3.21,6.19-3.21s4.23,1.28,6.2,3.21c2.26,2.21,5.06,5,10.48,5s8.22-2.74,10.47-5c2-1.94,3.28-3.21,6.19-3.21s4.23,1.28,6.2,3.21c2.25,2.21,5.06,5,10.48,5s8.24-2.74,10.5-5c2-1.94,4.15-3.21,6.2-3.21v-6.12c-6.12,0-8.24,2.74-10.49,5-2,1.94-3.28,3.21-6.21,3.21s-4.22-1.28-6.19-3.21c-2.26-2.21-5.07-5-10.49-5s-8.22,2.75-10.47,5c-2,1.94-3.28,3.21-6.19,3.21s-4.23-1.28-6.2-3.21c-2.25-2.2-5.05-5-10.48-5s-8.22,2.75-10.48,5c-2,1.94-3.27,3.21-6.19,3.21s-4.22-1.28-6.2-3.21c-2.25-2.2-4.36-5-10.48-5v6.12Z" transform="translate(-239.51 -334.18)"/></g></svg>