<?xml version="1.0" encoding="utf-8"?>
<!-- Generator: Adobe Illustrator 16.0.0, SVG Export Plug-In . SVG Version: 6.00 Build 0)  -->
<!DOCTYPE svg PUBLIC "-//W3C//DTD SVG 1.1//EN" "http://www.w3.org/Graphics/SVG/1.1/DTD/svg11.dtd">
<svg version="1.1" id="Layer_1" xmlns="http://www.w3.org/2000/svg" xmlns:xlink="http://www.w3.org/1999/xlink" x="0px" y="0px"
	 width="123px" height="106px" viewBox="0 0 123 106" enable-background="new 0 0 123 106" xml:space="preserve">
<g>
	<path fill-rule="evenodd" clip-rule="evenodd" fill="#FFFFFF" d="M61.475,105.98c-16.077,0-32.154,0.002-48.23,0
		c-8.101-0.002-13.225-5.126-13.226-13.229c-0.003-20.836-0.003-41.67,0-62.506c0.001-8.215,5.099-13.276,13.36-13.279
		c5.889-0.003,11.778-0.033,17.667,0.027c1.157,0.012,1.767-0.305,2.284-1.388c2.179-4.559,4.508-9.048,6.708-13.598
		c0.706-1.46,1.688-2.031,3.323-2.024c12.13,0.051,24.262,0.048,36.392,0.002c1.563-0.006,2.501,0.53,3.182,1.939
		c2.224,4.604,4.571,9.148,6.795,13.752c0.482,0.999,1.058,1.324,2.149,1.315c6.123-0.053,12.248-0.034,18.372-0.023
		c7.405,0.013,12.744,5.272,12.751,12.64c0.021,21.248,0.021,42.495,0,63.741c-0.008,7.355-5.356,12.622-12.77,12.627
		C93.98,105.988,77.727,105.98,61.475,105.98z M61.514,101.742c16.197,0,32.396,0.005,48.593-0.003
		c5.316-0.003,8.652-3.282,8.655-8.546c0.012-21.135,0.012-42.269,0.001-63.402c-0.003-5.302-3.305-8.576-8.615-8.583
		c-6.714-0.01-13.429-0.043-20.143,0.026c-1.65,0.017-2.596-0.602-3.3-2.055c-2.204-4.549-4.529-9.041-6.738-13.588
		c-0.471-0.968-0.992-1.373-2.117-1.369c-10.896,0.046-21.793,0.046-32.689,0c-1.129-0.005-1.639,0.413-2.108,1.378
		c-2.211,4.546-4.538,9.037-6.743,13.586c-0.706,1.458-1.66,2.064-3.304,2.047c-6.537-0.069-13.076-0.03-19.614-0.028
		c-6.039,0.002-9.132,3.092-9.132,9.127c-0.002,20.781-0.001,41.562,0,62.344c0,5.923,3.122,9.063,9.015,9.065
		C29.354,101.744,45.434,101.742,61.514,101.742z"/>
	<path fill-rule="evenodd" clip-rule="evenodd" fill="#FFFFFF" d="M61.504,86.904C47.454,86.9,36.037,75.441,36.068,61.376
		C36.1,47.42,47.532,36.04,61.518,36.042c14.05,0.003,25.476,11.465,25.44,25.523C86.924,75.514,75.478,86.908,61.504,86.904z
		 M61.524,82.666c11.729-0.004,21.216-9.518,21.193-21.254c-0.023-11.65-9.48-21.106-21.132-21.131
		C49.823,40.257,40.321,49.706,40.31,61.44C40.298,73.181,49.784,82.67,61.524,82.666z"/>
</g>
</svg>
