<?xml version="1.0" encoding="utf-8"?>
<!-- Generator: Adobe Illustrator 16.0.0, SVG Export Plug-In . SVG Version: 6.00 Build 0)  -->
<!DOCTYPE svg PUBLIC "-//W3C//DTD SVG 1.1//EN" "http://www.w3.org/Graphics/SVG/1.1/DTD/svg11.dtd">
<svg version="1.1" id="Layer_1" xmlns="http://www.w3.org/2000/svg" xmlns:xlink="http://www.w3.org/1999/xlink" x="0px" y="0px"
	 width="500px" height="500px" viewBox="0 0 500 500" enable-background="new 0 0 500 500" xml:space="preserve">
<g opacity="0.68">
	<path fill-rule="evenodd" clip-rule="evenodd" fill="#FFFFFF" d="M158.948,250.948c1.196-1.26,104.891-104.865,155.738-156.025
		c9.723-9.783,22.273-6.422,26.629,1.946c2.94,5.65,2.386,12.336-1.672,17.321c-1.048,1.287-2.252,2.452-3.429,3.628
		c-42.994,43.003-131.461,131.609-134.042,134.338c1.935,1.202,91.529,89.596,134.698,132.66c5.146,5.135,7.844,10.761,5.426,17.939
		c-3.542,10.516-16.274,14.161-24.803,6.646c-7.845-6.912-14.994-14.617-22.4-22.021
		C250.795,343.089,160.221,252.32,158.948,250.948z"/>
</g>
</svg>
