<svg width="22" height="22" viewBox="0 0 22 22" fill="none" xmlns="http://www.w3.org/2000/svg">
<g id="Frame 2610947">
<path id="Vector" d="M18.1111 3.5C18.3469 3.5 18.573 3.59365 18.7397 3.76035C18.9064 3.92705 19 4.15314 19 4.38889V18.6111C19 18.8469 18.9064 19.073 18.7397 19.2397C18.573 19.4064 18.3469 19.5 18.1111 19.5H3.88889C3.65314 19.5 3.42705 19.4064 3.26035 19.2397C3.09365 19.073 3 18.8469 3 18.6111V4.38889C3 4.15314 3.09365 3.92705 3.26035 3.76035C3.42705 3.59365 3.65314 3.5 3.88889 3.5H18.1111ZM10.1111 12.3889H4.77778V17.7222H10.1111V12.3889ZM11.8889 17.7222H17.2222V5.27778H11.8889V17.7222ZM10.1111 5.27778H4.77778V10.6111H10.1111V5.27778Z" fill="#292C43"/>
</g>
</svg>
