<svg width="22" height="20" viewBox="0 0 22 20" fill="none" xmlns="http://www.w3.org/2000/svg">
<g id="Frame 2610947">
<path id="Vector" d="M16 0C16.2652 0 16.5196 0.105357 16.7071 0.292893C16.8946 0.48043 17 0.734784 17 1V9H15V2H5V18H9V20H4C3.73478 20 3.48043 19.8946 3.29289 19.7071C3.10536 19.5196 3 19.2652 3 19V1C3 0.734784 3.10536 0.48043 3.29289 0.292893C3.48043 0.105357 3.73478 0 4 0H16ZM13 10C13.7053 9.9999 14.3982 10.1863 15.0082 10.5403C15.6183 10.8943 16.1239 11.4034 16.4738 12.0158C16.8236 12.6283 17.0054 13.3223 17.0005 14.0276C16.9956 14.733 16.8043 15.4245 16.446 16.032L18.656 18.242L17.243 19.657L15.031 17.447C14.5011 17.759 13.9064 17.9446 13.2931 17.9894C12.6798 18.0342 12.0645 17.937 11.4949 17.7053C10.9253 17.4737 10.4167 17.1139 10.0088 16.6538C9.6008 16.1937 9.30441 15.6457 9.14261 15.0525C8.98082 14.4592 8.95798 13.8367 9.07586 13.2332C9.19375 12.6296 9.44919 12.0614 9.82234 11.5727C10.1955 11.0839 10.6763 10.6878 11.2274 10.415C11.7785 10.1423 12.3851 10.0003 13 10ZM13 12C12.4696 12 11.9609 12.2107 11.5858 12.5858C11.2107 12.9609 11 13.4696 11 14C11 14.5304 11.2107 15.0391 11.5858 15.4142C11.9609 15.7893 12.4696 16 13 16C13.5304 16 14.0391 15.7893 14.4142 15.4142C14.7893 15.0391 15 14.5304 15 14C15 13.4696 14.7893 12.9609 14.4142 12.5858C14.0391 12.2107 13.5304 12 13 12Z" fill="white"/>
</g>
</svg>
