<svg width="22" height="19" viewBox="0 0 22 19" fill="none" xmlns="http://www.w3.org/2000/svg">
<g id="Group">
<path id="Vector" d="M17.4167 6.15717H22V7.91643H17.4167V6.15717ZM15.5833 10.5553H22V12.3146H15.5833V10.5553ZM18.3333 14.9535H22V16.7127H18.3333V14.9535ZM1.83334 19.3516C1.83334 17.4853 2.60596 15.6954 3.98123 14.3757C5.35649 13.056 7.22176 12.3146 9.16668 12.3146C11.1116 12.3146 12.9769 13.056 14.3521 14.3757C15.7274 15.6954 16.5 17.4853 16.5 19.3516H14.6667C14.6667 17.9519 14.0872 16.6094 13.0558 15.6197C12.0243 14.6299 10.6254 14.0738 9.16668 14.0738C7.70799 14.0738 6.30904 14.6299 5.27759 15.6197C4.24614 16.6094 3.66668 17.9519 3.66668 19.3516H1.83334ZM9.16668 11.4349C6.12793 11.4349 3.66668 9.07314 3.66668 6.15717C3.66668 3.2412 6.12793 0.879395 9.16668 0.879395C12.2054 0.879395 14.6667 3.2412 14.6667 6.15717C14.6667 9.07314 12.2054 11.4349 9.16668 11.4349ZM9.16668 9.67569C11.1925 9.67569 12.8333 8.10115 12.8333 6.15717C12.8333 4.21319 11.1925 2.63865 9.16668 2.63865C7.14084 2.63865 5.50001 4.21319 5.50001 6.15717C5.50001 8.10115 7.14084 9.67569 9.16668 9.67569Z" fill="#FF7549"/>
</g>
</svg>
