<svg width="22" height="18" viewBox="0 0 22 18" fill="none" xmlns="http://www.w3.org/2000/svg">
<g id="Frame 2610946">
<path id="Vector" d="M2.86252 13.2305C2.48971 12.5857 2.1999 11.8965 2 11.1791C2.43506 10.9578 2.80043 10.6205 3.05569 10.2045C3.31095 9.78844 3.44615 9.3099 3.44633 8.8218C3.44652 8.3337 3.31167 7.85507 3.05673 7.43885C2.80178 7.02262 2.43666 6.68504 2.00176 6.46344C2.40043 5.02192 3.15949 3.70561 4.20746 2.63852C4.61676 2.90462 5.0917 3.05229 5.57972 3.06518C6.06774 3.07808 6.54981 2.95569 6.97259 2.71158C7.39536 2.46746 7.74235 2.11113 7.97516 1.68202C8.20796 1.25292 8.3175 0.767762 8.29166 0.280255C9.73988 -0.0940149 11.2595 -0.0934078 12.7075 0.282019C12.6818 0.769516 12.7916 1.2546 13.0246 1.68358C13.2576 2.11257 13.6047 2.46873 14.0276 2.71266C14.4504 2.95659 14.9325 3.07877 15.4205 3.06569C15.9085 3.0526 16.3834 2.90476 16.7925 2.63852C17.3032 3.15886 17.7565 3.75063 18.1375 4.41119C18.5194 5.07176 18.8051 5.76054 19 6.46255C18.5649 6.68383 18.1996 7.02114 17.9443 7.43717C17.689 7.85321 17.5538 8.33174 17.5537 8.81984C17.5535 9.30794 17.6883 9.78658 17.9433 10.2028C18.1982 10.619 18.5633 10.9566 18.9982 11.1782C18.5996 12.6197 17.8405 13.936 16.7925 15.0031C16.3832 14.737 15.9083 14.5894 15.4203 14.5765C14.9323 14.5636 14.4502 14.686 14.0274 14.9301C13.6046 15.1742 13.2576 15.5305 13.0248 15.9596C12.792 16.3887 12.6825 16.8739 12.7083 17.3614C11.2601 17.7357 9.74046 17.7351 8.29254 17.3596C8.31816 16.8721 8.2084 16.387 7.97542 15.9581C7.74243 15.5291 7.39531 15.1729 6.97245 14.929C6.54959 14.6851 6.06749 14.5629 5.57949 14.576C5.0915 14.589 4.61664 14.7369 4.20746 15.0031C3.68623 14.4713 3.23434 13.8757 2.86252 13.2305ZM7.85422 13.4033C8.79403 13.9454 9.50064 14.8153 9.83856 15.8462C10.2786 15.8877 10.7205 15.8886 11.1606 15.8471C11.4987 14.816 12.2056 13.9461 13.1458 13.4042C14.0852 12.8606 15.1923 12.6832 16.2546 12.9059C16.5103 12.5461 16.7308 12.1624 16.9142 11.7612C16.1906 10.9528 15.7908 9.90578 15.7916 8.82082C15.7916 7.7096 16.2061 6.67157 16.9142 5.88048C16.7295 5.47934 16.5081 5.09613 16.2528 4.73574C15.1912 4.95826 14.0848 4.78114 13.1458 4.23834C12.206 3.69628 11.4994 2.82636 11.1614 1.7954C10.7214 1.75395 10.2795 1.75307 9.83944 1.79452C9.5013 2.82562 8.79436 3.69556 7.85422 4.23746C6.91478 4.781 5.80769 4.95845 4.74543 4.73574C4.49017 5.09582 4.26931 5.47909 4.08575 5.88048C4.80944 6.68882 5.20922 7.73587 5.20845 8.82082C5.20845 9.93205 4.79394 10.9701 4.08575 11.7612C4.27049 12.1623 4.49192 12.5455 4.7472 12.9059C5.80879 12.6834 6.91515 12.8605 7.85422 13.4033ZM10.5 11.4666C9.7983 11.4666 9.12533 11.1878 8.62915 10.6917C8.13297 10.1955 7.85422 9.52253 7.85422 8.82082C7.85422 8.11912 8.13297 7.44616 8.62915 6.94998C9.12533 6.4538 9.7983 6.17505 10.5 6.17505C11.2017 6.17505 11.8747 6.4538 12.3708 6.94998C12.867 7.44616 13.1458 8.11912 13.1458 8.82082C13.1458 9.52253 12.867 10.1955 12.3708 10.6917C11.8747 11.1878 11.2017 11.4666 10.5 11.4666ZM10.5 9.70275C10.7339 9.70275 10.9582 9.60983 11.1236 9.44444C11.289 9.27905 11.3819 9.05472 11.3819 8.82082C11.3819 8.58692 11.289 8.3626 11.1236 8.19721C10.9582 8.03181 10.7339 7.9389 10.5 7.9389C10.2661 7.9389 10.0418 8.03181 9.87638 8.19721C9.71099 8.3626 9.61807 8.58692 9.61807 8.82082C9.61807 9.05472 9.71099 9.27905 9.87638 9.44444C10.0418 9.60983 10.2661 9.70275 10.5 9.70275Z" fill="white"/>
</g>
</svg>
