<svg width="22" height="18" viewBox="0 0 22 18" fill="none" xmlns="http://www.w3.org/2000/svg">
<g id="Frame 2610944">
<path id="Vector" d="M11.2569 2.77778H18.8889C19.1246 2.77778 19.3507 2.87143 19.5174 3.03813C19.6841 3.20483 19.7778 3.43092 19.7778 3.66667V16.1111C19.7778 16.3469 19.6841 16.573 19.5174 16.7397C19.3507 16.9064 19.1246 17 18.8889 17H2.88889C2.65314 17 2.42705 16.9064 2.26035 16.7397C2.09365 16.573 2 16.3469 2 16.1111V1.88889C2 1.65314 2.09365 1.42705 2.26035 1.26035C2.42705 1.09365 2.65314 1 2.88889 1H9.47911L11.2569 2.77778ZM3.77778 2.77778V15.2222H18V4.55556H10.5209L8.74311 2.77778H3.77778ZM7.85867 10.608C7.74604 10.134 7.74604 9.64022 7.85867 9.16622L6.97778 8.65778L7.86667 7.11822L8.74756 7.62756C9.1012 7.29243 9.52871 7.04518 9.99556 6.90578V5.88889H11.7733V6.90578C12.2462 7.04711 12.6711 7.29689 13.0204 7.62756L13.9022 7.11822L14.7911 8.65689L13.9102 9.16622C14.0229 9.64022 14.0229 10.134 13.9102 10.608L14.7911 11.1164L13.9022 12.6551L13.0213 12.1467C12.6676 12.4815 12.2401 12.7284 11.7733 12.8676V13.8853H9.99556V12.8667C9.5288 12.7275 9.10129 12.4806 8.74756 12.1458L7.86667 12.6542L6.97778 11.1164L7.85867 10.6071V10.608ZM10.8844 11.2196C11.0635 11.2261 11.2421 11.1965 11.4094 11.1325C11.5768 11.0684 11.7296 10.9714 11.8586 10.847C11.9876 10.7226 12.0902 10.5735 12.1603 10.4086C12.2303 10.2437 12.2665 10.0663 12.2665 9.88711C12.2665 9.70792 12.2303 9.53056 12.1603 9.36564C12.0902 9.20072 11.9876 9.05162 11.8586 8.92725C11.7296 8.80287 11.5768 8.70578 11.4094 8.64176C11.2421 8.57775 11.0635 8.54812 10.8844 8.55467C10.5395 8.56727 10.2128 8.71317 9.97326 8.96167C9.73367 9.21018 9.59979 9.54192 9.59979 9.88711C9.59979 10.2323 9.73367 10.564 9.97326 10.8126C10.2128 11.0611 10.5395 11.207 10.8844 11.2196Z" fill="#FF7549"/>
</g>
</svg>
