<svg width="24" height="27" viewBox="0 0 24 27" fill="none" xmlns="http://www.w3.org/2000/svg">
<g id="Frame 2610942" filter="url(#filter0_d_1064_502)">
<path id="Vector" d="M19.1111 22.2778H4.88889C4.65314 22.2778 4.42705 22.1841 4.26035 22.0174C4.09365 21.8507 4 21.6246 4 21.3889V5.38889C4 5.15314 4.09365 4.92705 4.26035 4.76035C4.42705 4.59365 4.65314 4.5 4.88889 4.5H19.1111C19.3469 4.5 19.573 4.59365 19.7397 4.76035C19.9064 4.92705 20 5.15314 20 5.38889V21.3889C20 21.6246 19.9064 21.8507 19.7397 22.0174C19.573 22.1841 19.3469 22.2778 19.1111 22.2778ZM18.2222 20.5V6.27778H5.77778V20.5H18.2222ZM8.44444 8.94444H15.5556V10.7222H8.44444V8.94444ZM8.44444 12.5H15.5556V14.2778H8.44444V12.5ZM8.44444 16.0556H15.5556V17.8333H8.44444V16.0556Z" fill="#FF7549"/>
</g>
</svg>
