<svg width="22" height="20" viewBox="0 0 22 20" fill="none" xmlns="http://www.w3.org/2000/svg">
<g id="Frame 2610947">
<path id="Vector" d="M13.6667 2.77778H4.77778V17H17.2222V6.33333H13.6667V2.77778ZM3 1.88178C3 1.39467 3.39733 1 3.888 1H14.5555L19 5.44444V17.8826C19.0008 17.9994 18.9786 18.1151 18.9347 18.2233C18.8908 18.3314 18.826 18.4299 18.744 18.513C18.6621 18.5961 18.5645 18.6623 18.457 18.7077C18.3495 18.7531 18.234 18.7769 18.1173 18.7778H3.88267C3.64922 18.7761 3.42579 18.6827 3.26064 18.5177C3.09548 18.3528 3.00186 18.1294 3 17.896V1.88178ZM10.1111 8.99999V6.33333H11.8889V8.99999H14.5555V10.7778H11.8889V13.4444H10.1111V10.7778H7.44444V8.99999H10.1111Z" fill="#292C43"/>
</g>
</svg>
