<svg width="24" height="22" viewBox="0 0 24 22" fill="none" xmlns="http://www.w3.org/2000/svg">
<g id="Frame 2610942">
<path id="Vector" d="M10.187 5.79195L10.9476 2.48245C11.003 2.24195 11.109 2.01389 11.2598 1.81129C11.4105 1.60869 11.603 1.43552 11.8262 1.30168C12.0493 1.16783 12.2988 1.07592 12.5605 1.03121C12.8221 0.986499 13.0907 0.989857 13.3509 1.04109L16.5876 1.67753C16.886 1.37131 17.2854 1.16464 17.7238 1.08957C18.1622 1.0145 18.6152 1.07523 19.0125 1.26234C19.4098 1.44945 19.7291 1.75248 19.921 2.12443C20.113 2.49639 20.1667 2.91647 20.074 3.31954C19.9812 3.7226 19.7471 4.08611 19.408 4.3537C19.0689 4.62128 18.6438 4.77797 18.1985 4.79947C17.7532 4.82098 17.3127 4.70609 16.9452 4.47263C16.5778 4.23916 16.304 3.90018 16.1663 3.50824L12.9296 2.8718L12.2551 5.80599C14.0618 5.93421 15.8574 6.48923 17.4839 7.39709C17.9672 7.14874 18.5114 7.01913 19.0644 7.02064C19.6174 7.02216 20.1607 7.15476 20.6424 7.40576C21.1242 7.65676 21.5282 8.01776 21.8158 8.45426C22.1034 8.89076 22.2651 9.38815 22.2853 9.89887V9.91853C22.2931 10.3763 22.1869 10.8296 21.9749 11.2434C21.763 11.6573 21.4509 12.0205 21.0629 12.3052C21.0611 12.3436 21.0584 12.382 21.0548 12.4203C21.0548 16.1622 16.5481 19 11.1309 19C5.73096 19 1.29918 16.1697 1.30221 12.4924C1.2978 12.436 1.29442 12.3795 1.29209 12.323C0.637969 11.8692 0.194271 11.2032 0.0504106 10.4591C-0.0934502 9.71505 0.0732203 8.94824 0.516834 8.31322C0.960447 7.6782 1.64802 7.22219 2.441 7.03708C3.23398 6.85196 4.0734 6.95151 4.79011 7.31567C6.42581 6.40465 8.27972 5.88124 10.187 5.79195ZM19.5914 10.964C20.0046 10.774 20.2639 10.3837 20.2608 9.95784C20.2503 9.74369 20.1732 9.53688 20.0388 9.36215C19.9044 9.18742 19.7184 9.05218 19.503 8.9726C19.2877 8.89302 19.052 8.87247 18.8243 8.91341C18.5966 8.95435 18.3865 9.05506 18.2191 9.20347L17.6267 9.7276L16.9481 9.30174C15.3126 8.27407 13.4521 7.68724 11.6515 7.65073H10.6327C8.73375 7.67788 6.93511 8.2123 5.3289 9.21844L4.65744 9.63962L4.066 9.12485C3.93846 9.01421 3.78642 8.93051 3.62041 8.87954C3.4544 8.82857 3.27839 8.81155 3.10456 8.82967C2.93073 8.84778 2.76324 8.90059 2.61368 8.98444C2.46412 9.06829 2.33606 9.18118 2.23838 9.31529C2.14069 9.4494 2.07571 9.60152 2.04793 9.76114C2.02016 9.92075 2.03025 10.084 2.07751 10.2397C2.12477 10.3953 2.20806 10.5396 2.32163 10.6626C2.4352 10.7856 2.57633 10.8842 2.73525 10.9518L3.37632 11.2232L3.32163 11.8737C3.30847 12.0328 3.30847 12.191 3.32467 12.4203C3.32467 14.9567 6.72345 17.1281 11.1309 17.1281C15.5576 17.1281 19.0293 14.9417 19.0324 12.3492C19.0456 12.1909 19.0456 12.032 19.0324 11.8737L18.9797 11.2448L19.5914 10.964ZM6.03276 11.1128C6.03276 10.7405 6.1928 10.3834 6.47769 10.1201C6.76259 9.85679 7.14898 9.70888 7.55188 9.70888C7.95477 9.70888 8.34117 9.85679 8.62606 10.1201C8.91095 10.3834 9.071 10.7405 9.071 11.1128C9.071 11.4851 8.91095 11.8422 8.62606 12.1055C8.34117 12.3688 7.95477 12.5167 7.55188 12.5167C7.14898 12.5167 6.76259 12.3688 6.47769 12.1055C6.1928 11.8422 6.03276 11.4851 6.03276 11.1128ZM13.122 11.1128C13.122 10.7405 13.282 10.3834 13.5669 10.1201C13.8518 9.85679 14.2382 9.70888 14.6411 9.70888C15.044 9.70888 15.4304 9.85679 15.7153 10.1201C16.0002 10.3834 16.1602 10.7405 16.1602 11.1128C16.1602 11.4851 16.0002 11.8422 15.7153 12.1055C15.4304 12.3688 15.044 12.5167 14.6411 12.5167C14.2382 12.5167 13.8518 12.3688 13.5669 12.1055C13.282 11.8422 13.122 11.4851 13.122 11.1128ZM11.1127 15.8889C9.69789 15.8889 8.31042 15.5426 7.18121 14.7564C7.113 14.6803 7.07797 14.5834 7.08297 14.4847C7.08797 14.386 7.13265 14.2926 7.20827 14.2227C7.28388 14.1528 7.38499 14.1115 7.49181 14.1069C7.59863 14.1023 7.70347 14.1346 7.78582 14.1977C8.74287 14.8463 9.93588 15.1243 11.0965 15.1243C12.2571 15.1243 13.4562 14.8669 14.4224 14.2267C14.4782 14.1763 14.5475 14.1404 14.6231 14.1226C14.6987 14.1048 14.7781 14.1057 14.8533 14.1253C14.9284 14.1448 14.9966 14.1823 15.0511 14.2339C15.1056 14.2856 15.1444 14.3496 15.1637 14.4195C15.1801 14.4896 15.1777 14.5623 15.1567 14.6313C15.1357 14.7003 15.0967 14.7635 15.0432 14.8154C14.3504 15.5613 12.5275 15.8889 11.1127 15.8889Z" fill="#292C43"/>
</g>
</svg>
