<svg id="sym" xmlns="http://www.w3.org/2000/svg" xmlns:xlink="http://www.w3.org/1999/xlink" width="50.38" height="35.752" viewBox="0 0 50.38 35.752">
  <defs>
    <clipPath id="clip-path">
      <rect id="사각형_768" data-name="사각형 768" width="50.38" height="35.752" fill="#275dcd"/>
    </clipPath>
  </defs>
  <g id="그룹_2405" data-name="그룹 2405" clip-path="url(#clip-path)">
    <path id="패스_4897" data-name="패스 4897" d="M47.744,15.706a12.528,12.528,0,0,0-7.035-3.744C38.5,3.213,30.23.3,25.924.006l-.195,0c-9.986.184-14.175,7.04-15.368,11.938A11.091,11.091,0,0,0,.1,22.646c-1.05,8.8,6.114,12.4,10.039,13.068l.367.029h4.329c.034,0,.066,0,.1,0,.059,0,.118.015.176.015A2.324,2.324,0,0,0,17.3,34.222l4.356-12.008,5.618,12.179a2.324,2.324,0,0,0,3.379.974,2.382,2.382,0,0,0,.8-3l-7.948-17.23,0,0q-.049-.1-.107-.2c-.008-.013-.017-.025-.025-.038-.032-.052-.064-.1-.1-.152-.02-.028-.043-.053-.064-.08s-.051-.066-.079-.1-.047-.048-.07-.072-.059-.062-.09-.091-.046-.038-.069-.058-.07-.06-.107-.088c-.021-.016-.045-.03-.067-.046-.04-.028-.079-.056-.121-.082-.025-.015-.05-.027-.075-.041-.056-.031-.114-.061-.173-.088s-.105-.047-.16-.067l-.007,0c-.026-.009-.052-.015-.078-.024-.045-.015-.09-.03-.136-.041s-.07-.015-.105-.022-.078-.017-.118-.023-.077-.009-.115-.013-.073-.009-.111-.011-.078,0-.117,0-.074,0-.111,0-.076.006-.114.009-.075.006-.113.011-.075.013-.112.02-.074.013-.111.022-.081.023-.121.035-.065.018-.1.029c-.049.017-.1.038-.144.058-.021.009-.043.016-.064.026l-.006,0q-.1.048-.2.107c-.018.011-.034.023-.052.034-.047.029-.094.059-.139.092-.029.021-.055.044-.082.066s-.064.05-.094.077-.051.049-.076.074-.059.056-.087.086-.042.05-.063.075-.056.065-.082.1-.037.054-.055.081-.05.07-.072.107-.049.088-.072.132c-.012.022-.025.044-.036.067-.034.07-.063.141-.09.213l0,0L13.489,31.1H10.738c-1.247-.27-6.79-1.825-6.011-7.979.008-.065.014-.149.017-.215.044-1.077.608-6.412,7.406-6.412h.182a2.335,2.335,0,0,0,2.313-2.108,12.7,12.7,0,0,1,1.813-4.969c1.947-3.06,5.057-4.664,9.245-4.767,1.045.1,9.5,1.136,10.755,9.742A2.336,2.336,0,0,0,38.7,16.378c.035,0,3.585.143,5.59,2.43a7.147,7.147,0,0,1,1.388,5.612c0,.024-.005.069-.007.093-.045.659-.624,6.118-7.678,6.562l-5.2-11.828a2.412,2.412,0,0,0-3-1.36A2.323,2.323,0,0,0,28.486,21l5.334,12.142.79,2.137a.7.7,0,0,0,.685.458l4.475-.171C47.594,34.418,50.1,28.318,50.3,24.824c.358-3.731-.5-6.8-2.557-9.117" transform="translate(0 -0.001)" fill="#275dcd"/>
    <path id="패스_4898" data-name="패스 4898" d="M234.453,115.006a2.342,2.342,0,0,0-.68-1.643,2.319,2.319,0,0,0-.355-.292,2.142,2.142,0,0,0-.4-.211,2.278,2.278,0,0,0-.435-.135,2.353,2.353,0,0,0-.908,0,2.279,2.279,0,0,0-.435.135,2.13,2.13,0,0,0-.4.211,2.094,2.094,0,0,0-.351.292,2.319,2.319,0,0,0,0,3.282,2.122,2.122,0,0,0,.351.292,2.183,2.183,0,0,0,.4.211,2.245,2.245,0,0,0,.435.135,2.375,2.375,0,0,0,.456.047,2.337,2.337,0,0,0,2.323-2.323" transform="translate(-203.682 -99.871)" fill="#275dcd"/>
  </g>
</svg>
