<?xml version="1.0" encoding="utf-8"?>
<!-- Generator: Adobe Illustrator 16.0.0, SVG Export Plug-In . SVG Version: 6.00 Build 0)  -->
<!DOCTYPE svg PUBLIC "-//W3C//DTD SVG 1.1//EN" "http://www.w3.org/Graphics/SVG/1.1/DTD/svg11.dtd">
<svg version="1.1" id="Layer_1" xmlns="http://www.w3.org/2000/svg" xmlns:xlink="http://www.w3.org/1999/xlink" x="0px" y="0px"
	 width="56.69px" height="56.69px" viewBox="0 0 56.69 56.69" enable-background="new 0 0 56.69 56.69" xml:space="preserve">
<path fill-rule="evenodd" clip-rule="evenodd" fill="#C8C8C8" d="M28.368,3.792c13.558,0.062,24.534,11.055,24.523,24.56
	c-0.011,13.536-11.12,24.638-24.588,24.548C14.602,52.808,3.752,41.818,3.798,28.288C3.845,14.683,14.897,3.73,28.368,3.792z
	 M28.323,25.688c-2.486-2.488-4.925-4.93-7.364-7.371c-0.246-0.246-0.481-0.507-0.745-0.732c-0.617-0.525-1.325-0.622-2.048-0.287
	c-0.732,0.34-1.071,0.956-1.052,1.771c0.014,0.584,0.304,1.016,0.698,1.409c2.492,2.487,4.98,4.978,7.47,7.468
	c0.13,0.13,0.251,0.268,0.389,0.415c-2.36,2.359-4.677,4.676-6.994,6.992c-0.345,0.346-0.698,0.684-1.033,1.038
	c-0.561,0.594-0.697,1.431-0.363,2.129c0.335,0.7,1.013,1.08,1.831,1.045c0.563-0.023,0.977-0.316,1.355-0.696
	c2.488-2.491,4.979-4.979,7.471-7.468c0.13-0.13,0.268-0.251,0.418-0.392c1.669,1.672,3.294,3.3,4.92,4.927
	c1.021,1.023,2.034,2.059,3.072,3.065c1.043,1.012,2.714,0.632,3.128-0.711c0.242-0.785,0.01-1.458-0.577-2.041
	c-2.51-2.494-5.008-5-7.51-7.503c-0.129-0.129-0.25-0.267-0.387-0.415c2.509-2.508,4.974-4.972,7.438-7.437
	c0.234-0.234,0.482-0.458,0.691-0.714c0.851-1.036,0.415-2.588-0.849-2.974c-0.785-0.24-1.457-0.012-2.041,0.576
	c-2.481,2.498-4.976,4.983-7.466,7.473C28.642,25.39,28.503,25.517,28.323,25.688z"/>
</svg>
