<?xml version="1.0" encoding="utf-8"?>
<!-- Generator: Adobe Illustrator 16.0.0, SVG Export Plug-In . SVG Version: 6.00 Build 0)  -->
<!DOCTYPE svg PUBLIC "-//W3C//DTD SVG 1.1//EN" "http://www.w3.org/Graphics/SVG/1.1/DTD/svg11.dtd">
<svg version="1.1" id="Layer_1" xmlns="http://www.w3.org/2000/svg" xmlns:xlink="http://www.w3.org/1999/xlink" x="0px" y="0px"
	 width="500px" height="500px" viewBox="0 0 500 500" enable-background="new 0 0 500 500" xml:space="preserve">
<g>
	<path fill-rule="evenodd" clip-rule="evenodd" fill="#FFFFFF" d="M32.754,235.986c-7.963,6.918-14.829,12.953-21.772,18.896
		c-8.741,7.482-19.833,7.101-26.683-0.834c-6.86-7.946-5.54-18.777,3.277-26.461c79.756-69.51,159.52-139.01,239.273-208.522
		c4.866-4.241,9.219-9.144,16.578-9.071c5.128,0.05,9.336,1.695,13.145,5.019c62.761,54.779,125.545,109.53,188.329,164.283
		c18.708,16.313,37.461,32.576,56.134,48.93c8.21,7.191,9.215,18.08,2.574,25.799c-6.733,7.826-17.844,8.377-26.288,1.189
		c-7.087-6.033-14.072-12.186-22.18-19.219c0,2.942,0,4.79,0,6.638c0,75.816,0.007,151.633-0.01,227.448
		c-0.003,10.387-4.745,17.065-13.788,19.371c-1.899,0.483-3.947,0.533-5.927,0.533c-127.637,0.023-255.273,0.023-382.911,0.019
		c-12.545-0.001-19.737-7.2-19.741-19.891c-0.021-75.815-0.011-151.633-0.012-227.448C32.754,240.883,32.754,239.1,32.754,235.986z
		 M244.035,52.021c-0.97,0.761-1.511,1.148-2.01,1.583c-56.655,49.355-113.291,98.733-170.015,148.01
		c-2.579,2.24-3.262,4.567-3.259,7.757c0.062,79.812,0.047,159.625,0.06,239.438c0,1.607,0.163,3.214,0.256,4.951
		c116.748,0,233.133,0,350.03,0c0-2.032,0-3.816,0-5.603c0-79.479-0.031-158.957,0.091-238.437c0.007-3.917-1.31-6.367-4.174-8.853
		c-38.259-33.189-76.419-66.491-114.606-99.76C281.704,84.814,262.992,68.528,244.035,52.021z"/>
</g>
</svg>
