<?xml version="1.0" encoding="utf-8"?>
<!-- Generator: Adobe Illustrator 16.0.0, SVG Export Plug-In . SVG Version: 6.00 Build 0)  -->
<!DOCTYPE svg PUBLIC "-//W3C//DTD SVG 1.1//EN" "http://www.w3.org/Graphics/SVG/1.1/DTD/svg11.dtd">
<svg version="1.1" id="Layer_1" xmlns="http://www.w3.org/2000/svg" xmlns:xlink="http://www.w3.org/1999/xlink" x="0px" y="0px"
	 width="85px" height="78px" viewBox="0 0 85 78" enable-background="new 0 0 85 78" xml:space="preserve">
<g>
	<polygon fill="#FFFFFF" points="29.857,36.939 35.593,36.939 32.726,30.507 	"/>
	<path fill="#FFFFFF" d="M42.501,0C19.029,0,0,14.995,0,33.488c0,10.782,6.465,20.369,16.504,26.49
		c0.781,0.794,1.46,2.089,0.671,3.97c0,0-3.137,8.114-9.208,13.519c0,0-0.633,0.967,2.465,0.297c0,0,11.42-2.789,23.698-10.527
		c0,0,0.487-0.332,1.979-0.332c0,0,1.025-0.034,2.391-0.076c1.316,0.096,2.649,0.148,4,0.148C65.971,66.977,85,51.982,85,33.488
		C85,14.995,65.971,0,42.501,0z M20.632,42.108c0,1.126-0.842,2.044-1.877,2.044s-1.875-0.918-1.875-2.044V27.594h-4.397
		c-0.99,0-1.797-0.771-1.797-1.713c0-0.951,0.808-1.718,1.797-1.718h12.404c0.992,0,1.801,0.767,1.801,1.718
		c0,0.942-0.809,1.713-1.801,1.713h-4.253V42.108z M41.786,42.841c-0.171,0.499-0.52,0.891-0.985,1.096
		c-0.231,0.104-0.473,0.152-0.724,0.152c-0.788,0-1.518-0.493-1.855-1.261l-1.28-2.866h-8.208h-0.224l-1.278,2.866
		c-0.339,0.768-1.069,1.261-1.854,1.261c-0.253,0-0.497-0.048-0.724-0.152c-0.467-0.205-0.817-0.597-0.988-1.096
		c-0.173-0.498-0.145-1.054,0.078-1.556l7.074-15.869c0.091-0.2,0.481-0.68,0.882-0.965c0.004-0.002,0.005-0.006,0.007-0.006
		c0.098-0.072,0.194-0.13,0.289-0.17c0.003-0.002,0.007,0,0.007,0c0.01-0.002,0.016-0.011,0.025-0.015
		c0.219-0.098,0.455-0.146,0.697-0.15c0.242,0.005,0.478,0.053,0.697,0.15c0.008,0.004,0.016,0.013,0.025,0.015h0.006
		c0.094,0.04,0.192,0.098,0.289,0.168c0.004,0.002,0.01,0.008,0.01,0.008c0.4,0.285,0.791,0.765,0.88,0.967
		c0,0,0.002,0.004,0.004,0.006l7.068,15.861C41.932,41.787,41.959,42.343,41.786,42.841z M55.574,44.252H45.27
		c-1.24,0-1.828-0.573-1.898-1.819h-0.016V26.497c0-1.146,0.858-2.073,1.914-2.073c1.055,0,1.912,0.927,1.912,2.073v14.412h8.393
		c0.878,0,1.594,0.749,1.594,1.667C57.168,43.498,56.452,44.252,55.574,44.252z M73.201,43.691
		c-0.297,0.234-0.667,0.357-1.071,0.357c-0.716,0-1.448-0.383-1.958-1.022l-5.811-7.313l-1.831,1.855v4.327
		c0,1.353-0.937,2.456-2.083,2.456c-1.153,0-2.088-1.104-2.088-2.456V26.702c0-1.355,0.935-2.456,2.088-2.456
		c1.146,0,2.083,1.101,2.083,2.456v5.539l6.647-6.696c0.574-0.575,1.32-0.923,2.004-0.923c0.446,0,0.833,0.147,1.113,0.421
		c0.73,0.72,0.526,2.121-0.461,3.115l-4.701,4.753l6.111,7.69c0.401,0.506,0.615,1.107,0.604,1.692
		C73.836,42.875,73.606,43.372,73.201,43.691z"/>
</g>
</svg>
