<?xml version="1.0" encoding="utf-8"?>
<!-- Generator: Adobe Illustrator 16.0.0, SVG Export Plug-In . SVG Version: 6.00 Build 0)  -->
<!DOCTYPE svg PUBLIC "-//W3C//DTD SVG 1.1//EN" "http://www.w3.org/Graphics/SVG/1.1/DTD/svg11.dtd">
<svg version="1.1" id="Layer_1" xmlns="http://www.w3.org/2000/svg" xmlns:xlink="http://www.w3.org/1999/xlink" x="0px" y="0px"
	 width="65px" height="65px" viewBox="0 0 65 65" enable-background="new 0 0 65 65" xml:space="preserve">
<g>
	<g>
		<path fill-rule="evenodd" clip-rule="evenodd" fill="#FFFFFF" d="M32.449,65.013c-1.89,0-3.778,0.002-5.667-0.001
			c-0.769-0.001-0.958-0.158-1.097-0.904c-0.416-2.247-0.837-4.492-1.231-6.743c-0.063-0.356-0.2-0.538-0.542-0.665
			c-0.823-0.307-1.641-0.639-2.436-1.012c-0.341-0.159-0.566-0.105-0.854,0.095c-1.843,1.283-3.694,2.552-5.544,3.823
			c-0.751,0.517-0.938,0.504-1.564-0.123c-2.672-2.67-5.344-5.342-8.014-8.015c-0.624-0.625-0.638-0.821-0.118-1.567
			c1.282-1.844,2.556-3.691,3.857-5.52c0.244-0.342,0.251-0.598,0.074-0.963c-0.363-0.754-0.691-1.525-0.992-2.307
			c-0.129-0.336-0.302-0.482-0.662-0.546c-2.272-0.396-4.536-0.83-6.808-1.228C0.241,39.23,0,38.915,0.001,38.311
			C0.012,34.447,0.014,30.585,0,26.723c-0.003-0.642,0.259-0.95,0.891-1.06c2.23-0.387,4.453-0.816,6.685-1.2
			c0.429-0.074,0.634-0.25,0.78-0.662c0.262-0.749,0.573-1.487,0.933-2.196c0.203-0.401,0.142-0.673-0.102-1.019
			c-1.28-1.818-2.54-3.65-3.804-5.479c-0.519-0.749-0.504-0.948,0.117-1.57c2.671-2.672,5.342-5.344,8.014-8.016
			c0.61-0.61,0.82-0.631,1.518-0.153c1.87,1.281,3.741,2.557,5.6,3.854c0.313,0.219,0.556,0.245,0.906,0.08
			c0.776-0.365,1.572-0.692,2.377-0.991c0.345-0.127,0.478-0.315,0.54-0.668c0.396-2.25,0.83-4.494,1.223-6.745
			c0.111-0.632,0.414-0.888,1.059-0.885c3.841,0.016,7.684,0.014,11.524,0.001c0.632-0.002,0.957,0.235,1.068,0.876
			c0.393,2.251,0.832,4.494,1.221,6.746c0.068,0.397,0.25,0.561,0.596,0.692c0.783,0.298,1.562,0.614,2.318,0.971
			c0.347,0.164,0.59,0.146,0.905-0.075c1.855-1.301,3.726-2.58,5.593-3.864c0.676-0.464,0.892-0.446,1.469,0.13
			c2.702,2.7,5.404,5.4,8.104,8.104c0.549,0.55,0.571,0.783,0.136,1.419c-1.292,1.886-2.582,3.775-3.889,5.65
			c-0.218,0.311-0.255,0.558-0.088,0.91c0.357,0.757,0.684,1.532,0.97,2.318c0.125,0.346,0.309,0.493,0.655,0.553
			c2.168,0.378,4.333,0.773,6.501,1.159C64.888,25.794,65,25.922,65,26.986c0.001,3.715,0.001,7.43,0,11.145
			c0,0.911-0.11,1.059-0.982,1.223c-2.205,0.414-4.409,0.826-6.618,1.221c-0.384,0.068-0.616,0.193-0.758,0.604
			c-0.275,0.789-0.619,1.557-0.981,2.313c-0.159,0.331-0.127,0.557,0.078,0.849c1.313,1.87,2.612,3.753,3.912,5.636
			c0.462,0.668,0.44,0.883-0.141,1.465c-2.701,2.702-5.401,5.404-8.104,8.104c-0.543,0.542-0.78,0.563-1.42,0.123
			c-1.867-1.283-3.738-2.56-5.591-3.863c-0.341-0.24-0.6-0.256-0.967-0.08c-0.736,0.352-1.491,0.671-2.258,0.949
			c-0.38,0.139-0.556,0.318-0.627,0.735c-0.384,2.231-0.808,4.455-1.221,6.681C39.18,64.867,39,65.012,38.18,65.012
			C36.27,65.014,34.359,65.013,32.449,65.013z M58.189,50.539c-1.342-1.941-2.667-3.881-4.02-5.801
			c-0.319-0.453-0.315-0.842-0.092-1.338c0.498-1.106,0.954-2.233,1.381-3.369c0.175-0.465,0.43-0.734,0.922-0.816
			c0.991-0.164,1.981-0.35,2.971-0.531c1.374-0.252,2.745-0.508,4.103-0.76c0-3.65,0-7.229,0-10.812
			c-0.152-0.043-0.271-0.088-0.395-0.11c-2.166-0.39-4.33-0.793-6.5-1.152c-0.617-0.102-0.939-0.379-1.145-0.976
			c-0.375-1.087-0.809-2.159-1.295-3.201c-0.257-0.548-0.229-0.954,0.118-1.443c1.344-1.899,2.652-3.823,3.94-5.689
			c-2.578-2.575-5.125-5.12-7.705-7.698c-1.894,1.308-3.847,2.647-5.788,4.005c-0.408,0.285-0.769,0.311-1.225,0.106
			c-1.146-0.513-2.303-1.005-3.477-1.451c-0.449-0.171-0.699-0.421-0.775-0.88c-0.088-0.538-0.186-1.074-0.282-1.61
			c-0.329-1.813-0.659-3.627-0.989-5.443c-3.642,0-7.241,0-10.844,0c-0.042,0.155-0.086,0.273-0.108,0.396
			c-0.391,2.166-0.789,4.331-1.159,6.5c-0.095,0.553-0.334,0.875-0.893,1.071c-1.064,0.375-2.124,0.792-3.13,1.3
			c-0.658,0.332-1.137,0.278-1.722-0.14c-1.859-1.327-3.754-2.602-5.588-3.864c-2.567,2.568-5.103,5.102-7.668,7.668
			c0.092,0.138,0.214,0.329,0.343,0.516c1.216,1.761,2.424,3.526,3.655,5.276c0.303,0.43,0.313,0.803,0.098,1.28
			C10.417,22.699,9.947,23.843,9.518,25c-0.175,0.471-0.433,0.736-0.92,0.816c-0.766,0.125-1.528,0.266-2.292,0.403
			c-1.585,0.287-3.169,0.575-4.764,0.865c0,3.635,0,7.219,0,10.82c0.2,0.047,0.38,0.1,0.563,0.133
			c2.146,0.387,4.29,0.781,6.438,1.148c0.517,0.088,0.794,0.331,0.977,0.828c0.405,1.1,0.83,2.197,1.344,3.249
			c0.299,0.612,0.273,1.062-0.12,1.61c-1.343,1.875-2.641,3.779-3.887,5.574c2.584,2.584,5.127,5.127,7.692,7.692
			c1.862-1.288,3.8-2.614,5.723-3.964c0.43-0.302,0.805-0.319,1.281-0.105c1.127,0.504,2.268,0.982,3.425,1.414
			c0.497,0.186,0.749,0.469,0.834,0.978c0.206,1.241,0.432,2.478,0.655,3.716c0.199,1.104,0.407,2.207,0.608,3.29
			c3.665,0,7.247,0,10.832,0c0.046-0.171,0.094-0.312,0.12-0.454c0.39-2.166,0.784-4.332,1.156-6.5
			c0.092-0.529,0.326-0.84,0.853-1.035c1.138-0.421,2.26-0.891,3.364-1.396c0.499-0.229,0.887-0.206,1.336,0.108
			c1.766,1.246,3.549,2.465,5.327,3.692c0.167,0.115,0.342,0.218,0.479,0.305C53.103,55.629,55.624,53.105,58.189,50.539z"/>
		<path fill-rule="evenodd" clip-rule="evenodd" fill="#FFFFFF" d="M46.617,32.508c0.004,7.934-6.444,14.377-14.376,14.367
			c-7.895-0.012-14.336-6.458-14.339-14.352c-0.005-7.921,6.459-14.374,14.387-14.365C40.191,18.167,46.613,24.598,46.617,32.508z
			 M45.105,32.576c0.024-7.117-5.685-12.881-12.78-12.906c-7.104-0.024-12.884,5.697-12.911,12.785
			c-0.028,7.098,5.703,12.881,12.79,12.908C39.311,45.391,45.081,39.671,45.105,32.576z"/>
	</g>
</g>
</svg>
