<?xml version="1.0" encoding="utf-8"?>
<!-- Generator: Adobe Illustrator 16.0.0, SVG Export Plug-In . SVG Version: 6.00 Build 0)  -->
<!DOCTYPE svg PUBLIC "-//W3C//DTD SVG 1.1//EN" "http://www.w3.org/Graphics/SVG/1.1/DTD/svg11.dtd">
<svg version="1.1" id="Layer_1" xmlns="http://www.w3.org/2000/svg" xmlns:xlink="http://www.w3.org/1999/xlink" x="0px" y="0px"
	 width="16px" height="26px" viewBox="0 0 16 26" enable-background="new 0 0 16 26" xml:space="preserve">
<g>
	<path fill-rule="evenodd" clip-rule="evenodd" fill="#FFFFFF" d="M15,13.054c-0.147,0.111-8.006,7.725-11.808,11.45
		c-0.374,0.365-0.782,0.588-1.316,0.459c-0.804-0.191-1.139-1.15-0.639-1.807c0.09-0.117,0.201-0.219,0.308-0.322
		c3.245-3.17,6.491-6.342,9.737-9.512c0.098-0.094,0.215-0.174,0.352-0.276c-0.15-0.155-0.249-0.263-0.352-0.366
		C8.02,9.492,4.759,6.302,1.491,3.118C1.125,2.761,0.908,2.371,1.038,1.861C1.259,0.998,2.333,0.709,3.024,1.34
		c0.551,0.505,1.07,1.042,1.604,1.566C7.99,6.19,14.849,12.901,15,13.054z"/>
</g>
</svg>
