<?xml version="1.0" encoding="utf-8"?>
<!-- Generator: Adobe Illustrator 16.0.0, SVG Export Plug-In . SVG Version: 6.00 Build 0)  -->
<!DOCTYPE svg PUBLIC "-//W3C//DTD SVG 1.1//EN" "http://www.w3.org/Graphics/SVG/1.1/DTD/svg11.dtd">
<svg version="1.1" id="Layer_1" xmlns="http://www.w3.org/2000/svg" xmlns:xlink="http://www.w3.org/1999/xlink" x="0px" y="0px"
	 width="112px" height="110px" viewBox="0 0 112 110" enable-background="new 0 0 112 110" xml:space="preserve">
<g>
	<path fill-rule="evenodd" clip-rule="evenodd" fill="#C8C8C9" d="M20.733,33.186c3.874,0.651,7.035,2.49,8.594,6.16
		c0.77,1.814,1.125,3.925,1.147,5.907c0.11,10.125-0.021,20.251,0.078,30.377c0.057,5.837-2.048,10.141-7.986,12.273
		c2.252,3.289,5.203,5.521,8.736,7.083c4.359,1.927,8.972,1.555,13.543,1.515c0.359-0.003,0.812-0.485,1.054-0.854
		c1.794-2.734,4.286-4.225,7.581-4.275c2.265-0.036,4.536-0.078,6.797,0.029c4.684,0.221,8.251,3.667,8.484,8.083
		c0.249,4.7-2.701,8.646-7.378,9.241c-2.991,0.379-6.088,0.335-9.097,0.051c-3.108-0.294-5.415-2.138-6.669-5.033
		c-0.386-0.892-0.889-1.029-1.746-1.067c-3.521-0.158-7.124,0.003-10.541-0.698c-7.453-1.532-13.141-5.793-16.934-12.399
		c-0.734-1.282-1.611-2.038-3.031-2.503c-6.806-2.22-12.108-9.329-12.232-16.503c-0.113-6.491-0.257-12.998,0.035-19.479
		C1.508,43.594,5.338,38.136,12.2,34.956c1.335-0.618,2.002-1.366,2.389-2.767C20.291,11.601,41.17-1.944,62.359,1.548
		c18.299,3.015,30.139,13.654,35.648,31.3c0.219,0.703,0.917,1.473,1.591,1.79c7.22,3.398,11.175,8.957,11.316,16.961
		c0.11,6.215,0.114,12.438-0.016,18.655c-0.219,10.438-9.068,18.481-19.512,17.881c-5.026-0.29-9.573-4.607-9.651-9.604
		C81.58,68.52,81.648,58.504,81.627,48.49c-0.005-1.485-0.028-2.974,0.017-4.458c0.166-5.483,3.292-9.313,8.647-10.626
		c0.316-0.077,0.637-0.131,0.957-0.194C88.748,22.042,76.597,8.62,59.336,7.22C38.838,5.56,24.324,19.938,20.733,33.186z
		 M104.898,60.865c0.004,0,0.01,0,0.015,0c0-2.971,0.028-5.942-0.006-8.911c-0.077-6.693-4.953-11.934-11.634-12.547
		c-3.057-0.28-5.281,1.657-5.287,4.706c-0.023,11.109-0.025,22.219-0.004,33.329c0.004,2.955,1.975,4.786,4.953,4.729
		c6.222-0.119,11.773-5.604,11.947-11.9C104.971,67.138,104.898,63.999,104.898,60.865z M24.348,60.739
		c0-5.559,0.027-11.116-0.011-16.673c-0.019-2.96-2.236-4.904-5.19-4.668C12.512,39.934,7.48,45.241,7.421,51.877
		c-0.053,5.941-0.062,11.886,0.005,17.827c0.063,5.82,4.224,10.833,9.892,12.1c4.675,1.043,7.287-1.33,7.09-5.552
		C24.168,71.092,24.351,65.911,24.348,60.739z M56.916,102.661c0,0.005,0,0.007,0,0.011c1.104,0,2.21,0.042,3.312-0.011
		c1.513-0.069,2.375-1.011,2.44-2.409c0.063-1.306-0.611-2.485-2.049-2.562c-2.518-0.134-5.053-0.138-7.569,0.011
		c-1.446,0.086-2.01,1.221-1.916,2.603c0.095,1.412,0.929,2.221,2.308,2.337C54.592,102.738,55.757,102.661,56.916,102.661z"/>
</g>
</svg>
