<?xml version="1.0" encoding="utf-8"?>
<!-- Generator: Adobe Illustrator 16.0.0, SVG Export Plug-In . SVG Version: 6.00 Build 0)  -->
<!DOCTYPE svg PUBLIC "-//W3C//DTD SVG 1.1//EN" "http://www.w3.org/Graphics/SVG/1.1/DTD/svg11.dtd">
<svg version="1.1" id="Layer_1" xmlns="http://www.w3.org/2000/svg" xmlns:xlink="http://www.w3.org/1999/xlink" x="0px" y="0px"
	 width="110px" height="110px" viewBox="0 0 110 110" enable-background="new 0 0 110 110" xml:space="preserve">
<path fill="#C8C8C9" d="M106.167,103.179c-0.248,0-0.499-0.062-0.732-0.188c-0.743-0.406-1.017-1.339-0.611-2.084
	c2.105-3.869-2.218-8.917-2.521-9.262L67.514,57.066l-20.947-6.951c-0.225-0.075-0.43-0.201-0.598-0.368L25.587,29.46H12.739
	c-0.536,0-1.032-0.281-1.31-0.741L0.861,11.211C0.496,10.607,0.59,9.831,1.089,9.33l6.892-6.911
	c0.491-0.493,1.251-0.592,1.851-0.243l17.154,9.983c0.472,0.275,0.763,0.78,0.763,1.328v7.219c0,0.848-0.686,1.536-1.532,1.536
	s-1.532-0.688-1.532-1.536v-6.333L9.313,5.426l-5.21,5.225l9.5,15.737h12.615c0.404,0,0.792,0.161,1.079,0.446l20.574,20.478
	l20.948,6.952c0.225,0.074,0.429,0.2,0.598,0.367l35.073,34.863c0.017,0.016,0.032,0.032,0.048,0.049
	c0.255,0.277,6.221,6.868,2.976,12.834C107.234,102.889,106.709,103.179,106.167,103.179z"/>
<path fill="#C8C8C9" d="M96.213,98.878c-0.394,0-0.787-0.151-1.086-0.452l-34.92-35.17c-0.598-0.602-0.596-1.573,0.004-2.172
	c0.6-0.598,1.569-0.596,2.166,0.005l34.921,35.169c0.597,0.602,0.595,1.574-0.005,2.173C96.994,98.729,96.604,98.878,96.213,98.878z
	"/>
<path fill="#C8C8C9" d="M97.481,110c-4.224,0-8.7-3.745-9.315-4.277c-0.031-0.027-0.063-0.057-0.092-0.086L53.463,70.313
	c-0.157-0.161-0.277-0.353-0.352-0.565l-3.679-10.443c-0.282-0.799,0.137-1.678,0.934-1.959c0.797-0.283,1.672,0.137,1.954,0.937
	l3.566,10.122l34.326,35.032c1.574,1.341,6.408,4.655,8.838,3.063c0.708-0.465,1.656-0.266,2.119,0.445
	c0.463,0.709,0.265,1.661-0.443,2.125C99.715,109.734,98.607,110,97.481,110z"/>
<path fill="#C8C8C9" d="M12.303,109.814c-1.565,0-2.918-0.351-3.79-0.743c-0.771-0.349-1.116-1.257-0.77-2.03
	c0.346-0.771,1.248-1.117,2.018-0.775c0.196,0.086,4.379,1.832,7.828-1.904c0.015-0.016,0.029-0.03,0.044-0.045L46.504,75.52
	c0.599-0.598,1.569-0.595,2.166,0.006c0.596,0.602,0.594,1.574-0.006,2.172l-28.849,28.775
	C17.434,109.037,14.633,109.814,12.303,109.814z"/>
<path fill="#C8C8C9" d="M2.139,102.696c-0.584,0-1.143-0.337-1.398-0.907c-0.975-2.177-1.686-7.342,2.594-11.334l35.738-35.819
	c0.598-0.6,1.568-0.6,2.166,0c0.598,0.6,0.598,1.573,0,2.172L5.479,92.647c-0.014,0.015-0.028,0.028-0.042,0.041
	c-3.781,3.51-1.922,7.799-1.902,7.843c0.346,0.773,0.002,1.682-0.769,2.03C2.562,102.652,2.349,102.696,2.139,102.696z"/>
<path fill="#C8C8C9" d="M84.969,51.963c-3.085,0-6.541-0.639-10.236-2.375c-0.766-0.36-1.096-1.275-0.736-2.042
	c0.359-0.768,1.27-1.1,2.036-0.739c13.548,6.368,23.566-3.941,23.666-4.046c0.028-0.03,0.058-0.059,0.089-0.085
	c8.644-7.746,7.462-17.758,6.396-22.118l-10.298,9.406c-8.193,8.029-15.519,1.688-16.309,0.957
	c-6.198-5.253-3.335-12.313-0.951-15.316c0.024-0.03,0.05-0.06,0.076-0.089l10.576-11.41C77.529,0.131,68.276,8.965,68.18,9.06
	c-0.02,0.019-0.039,0.037-0.06,0.055c-11.311,9.924-5.464,25.273-5.403,25.427c0.236,0.603,0.07,1.29-0.414,1.717l-7.199,6.335
	c-0.636,0.56-1.604,0.496-2.162-0.141c-0.558-0.638-0.495-1.607,0.141-2.167l6.427-5.656c-0.507-1.615-1.377-4.962-1.434-9.043
	c-0.107-7.573,2.66-14.059,8.001-18.759c0.351-0.334,3.192-2.969,7.675-4.87C80.02-0.702,86.522-0.65,92.559,2.107
	c0.448,0.205,0.771,0.613,0.867,1.097c0.097,0.484-0.045,0.985-0.38,1.347L80.992,17.555c-0.448,0.589-4.749,6.541,0.584,11.037
	c0.033,0.028,0.066,0.059,0.097,0.09c0.009,0.009,1.468,1.425,3.679,1.994c2.857,0.736,5.686-0.249,8.41-2.926
	c0.014-0.013,0.027-0.026,0.041-0.039l12.105-11.058c0.371-0.338,0.881-0.474,1.369-0.363s0.893,0.454,1.081,0.918
	c0.067,0.166,1.644,4.104,1.642,9.479c-0.001,4.989-1.415,12.198-8.131,18.242c-0.406,0.414-3.178,3.142-7.652,5.081
	C91.814,51.05,88.656,51.963,84.969,51.963z"/>
</svg>
