<?xml version="1.0" encoding="utf-8"?>
<!-- Generator: Adobe Illustrator 16.0.0, SVG Export Plug-In . SVG Version: 6.00 Build 0)  -->
<!DOCTYPE svg PUBLIC "-//W3C//DTD SVG 1.1//EN" "http://www.w3.org/Graphics/SVG/1.1/DTD/svg11.dtd">
<svg version="1.1" id="Layer_1" xmlns="http://www.w3.org/2000/svg" xmlns:xlink="http://www.w3.org/1999/xlink" x="0px" y="0px"
	 width="83px" height="106px" viewBox="0 0 83 106" enable-background="new 0 0 83 106" xml:space="preserve">
<g>
	<path fill-rule="evenodd" clip-rule="evenodd" fill="#C8C8C9" d="M19.39,27.973c0-1.938-0.06-3.744,0.01-5.545
		c0.392-10.195,7.575-18.794,17.448-20.933c9.852-2.133,19.902,2.775,24.498,11.89c1.918,3.807,2.432,7.846,2.331,12.028
		c-0.02,0.811-0.003,1.621-0.003,2.647c0.779,0,1.365,0,1.951,0c4.335,0.001,8.67-0.018,13.005,0.008
		c2.632,0.016,3.366,0.757,3.367,3.319c0.004,23.482,0.004,46.966-0.001,70.448c0,2.416-0.736,3.161-3.132,3.162
		c-24.913,0.004-49.825,0.004-74.738,0c-2.376-0.001-3.121-0.759-3.122-3.18C0.999,78.335,1,54.851,1.003,31.368
		c0-2.504,0.729-3.278,3.227-3.298c4.39-0.033,8.78-0.007,13.17-0.014C17.989,28.056,18.578,28.008,19.39,27.973z M5.89,32.905
		c0,22.461,0,44.859,0,67.266c23.807,0,47.485,0,71.225,0c0-22.484,0-44.865,0-67.251c-4.523,0-8.897,0-13.393,0
		c-0.028,0.605-0.073,1.142-0.075,1.679c-0.009,2.259,0.017,4.52-0.019,6.779c-0.01,0.589,0.015,1.429-0.333,1.711
		c-0.696,0.566-1.651,1.167-2.476,1.135c-1.195-0.047-1.872-1.056-1.879-2.321c-0.017-2.962-0.006-5.924-0.006-8.938
		c-11.706,0-23.239,0-34.873,0c0,0.663,0,1.209-0.001,1.753c0,2.26,0.017,4.521-0.007,6.78c-0.019,1.77-0.896,2.841-2.29,2.878
		c-1.427,0.038-2.364-1.097-2.393-2.936c-0.019-1.268-0.004-2.535-0.004-3.803c0-1.574,0-3.148,0-4.732
		C14.719,32.905,10.34,32.905,5.89,32.905z M58.805,27.968c0.787-8.333-1.146-15.38-8.622-19.747
		c-6.186-3.613-12.531-3.347-18.451,0.676c-6.704,4.555-8.271,11.343-7.544,19.07C35.738,27.968,47.228,27.968,58.805,27.968z"/>
</g>
<g>
	<path fill-rule="evenodd" clip-rule="evenodd" fill="#C8C8C9" d="M37.792,55.232c0-0.637-0.009-1.212,0.001-1.786
		c0.039-2.145,1.637-3.79,3.688-3.805c2.072-0.016,3.692,1.645,3.728,3.824c0.01,0.558,0.002,1.116,0.002,1.767
		c0.244,0,0.461,0,0.678,0c3.938,0,7.876-0.006,11.814,0.003c1.958,0.004,3.553,1.062,4.021,2.692
		c0.135,0.469,0.181,0.978,0.182,1.469c0.01,8.409,0.008,16.818,0.007,25.228c0,2.447-1.585,4.083-4.027,4.16
		c-0.103,0.003-0.206,0.001-0.31,0.001c-10.721,0-21.442,0.002-32.164-0.001c-1.629-0.001-3.021-0.535-3.833-2.032
		c-0.293-0.54-0.468-1.216-0.47-1.831c-0.03-8.596-0.025-17.19-0.017-25.787c0.002-2.259,1.739-3.887,4.166-3.897
		c3.896-0.016,7.793-0.004,11.69-0.004C37.196,55.232,37.443,55.232,37.792,55.232z M28.512,85.036c0-0.896-0.001-1.722,0-2.549
		c0.007-3.352,2.288-5.764,5.629-5.799c4.906-0.053,9.813-0.053,14.72,0c3.344,0.035,5.621,2.442,5.629,5.796
		c0.002,0.842,0,1.685,0,2.535c1.272,0,2.475,0,3.668,0c0-8.707,0-17.37,0-26.029c-11.131,0-22.214,0-33.32,0
		c0,8.697,0,17.359,0,26.046C26.065,85.036,27.253,85.036,28.512,85.036z M43.331,80.433c-1.231,0-2.436,0-3.646,0
		c0,1.555,0,3.072,0,4.584c1.243,0,2.442,0,3.646,0C43.331,83.469,43.331,81.966,43.331,80.433z M35.889,85.048
		c0-1.574,0-3.09,0-4.607c-0.723,0-1.403-0.045-2.075,0.011c-0.776,0.064-1.387,0.537-1.47,1.287
		c-0.12,1.089-0.031,2.201-0.031,3.31C33.496,85.048,34.668,85.048,35.889,85.048z M50.774,85.035c0-1.001,0.024-1.933-0.007-2.861
		c-0.029-0.827-0.625-1.602-1.383-1.689c-0.746-0.087-1.51-0.02-2.275-0.02c0,1.521,0,3.04,0,4.57
		C48.338,85.035,49.525,85.035,50.774,85.035z"/>
	<path fill-rule="evenodd" clip-rule="evenodd" fill="#C8C8C9" d="M39.643,68.298c-0.005,3.079-2.531,5.588-5.611,5.573
		c-3.029-0.015-5.523-2.55-5.518-5.606c0.006-3.077,2.535-5.59,5.612-5.574C37.154,62.705,39.648,65.239,39.643,68.298z
		 M34.064,70.142c1.006,0.01,1.855-0.831,1.864-1.845c0.009-1.011-0.83-1.869-1.834-1.877c-1.003-0.009-1.857,0.837-1.866,1.847
		C32.22,69.276,33.058,70.133,34.064,70.142z"/>
	<path fill-rule="evenodd" clip-rule="evenodd" fill="#C8C8C9" d="M48.92,73.871c-3.066-0.002-5.572-2.537-5.561-5.626
		c0.012-3.048,2.527-5.557,5.57-5.555c3.066,0.001,5.57,2.536,5.559,5.626C54.478,71.365,51.964,73.872,48.92,73.871z M48.834,70.14
		c1.002,0.055,1.887-0.753,1.938-1.767c0.052-1.007-0.751-1.899-1.757-1.951c-0.997-0.053-1.889,0.76-1.939,1.769
		C47.026,69.197,47.828,70.086,48.834,70.14z"/>
</g>
</svg>
