<?xml version="1.0" encoding="utf-8"?>
<!-- Generator: Adobe Illustrator 16.0.0, SVG Export Plug-In . SVG Version: 6.00 Build 0)  -->
<!DOCTYPE svg PUBLIC "-//W3C//DTD SVG 1.1//EN" "http://www.w3.org/Graphics/SVG/1.1/DTD/svg11.dtd">
<svg version="1.1" id="Layer_1" xmlns="http://www.w3.org/2000/svg" xmlns:xlink="http://www.w3.org/1999/xlink" x="0px" y="0px"
	 width="61px" height="61px" viewBox="0 0 61 61" enable-background="new 0 0 61 61" xml:space="preserve">
<g>
	<path fill-rule="evenodd" clip-rule="evenodd" fill="#FFFFFF" d="M5.626,32.195c2.366,2.518,4.567,4.861,6.771,7.203
		c5.746,6.107,11.493,12.215,17.239,18.322c0.155,0.164,0.318,0.324,0.453,0.504c0.545,0.723,0.483,1.717-0.135,2.316
		s-1.616,0.619-2.311,0.016c-0.319-0.277-0.592-0.605-0.882-0.914c-8.629-9.17-17.258-18.342-25.888-27.512
		c-1.168-1.242-1.165-2.016,0.012-3.266C9.554,19.653,18.222,10.441,26.892,1.23c0.289-0.308,0.571-0.635,0.906-0.885
		c0.696-0.517,1.576-0.44,2.167,0.138c0.578,0.563,0.685,1.478,0.21,2.172c-0.221,0.323-0.509,0.603-0.779,0.89
		C21.773,11.647,14.15,19.749,6.526,27.85c-0.247,0.263-0.486,0.532-0.875,0.957c0.498,0,0.819,0,1.141,0
		c17.279,0,34.558,0,51.837,0c1.563,0,2.348,0.553,2.369,1.665c0.023,1.141-0.784,1.723-2.388,1.723c-17.279,0-34.559,0-51.838,0
		C6.471,32.195,6.169,32.195,5.626,32.195z"/>
</g>
</svg>
