<?xml version="1.0" encoding="utf-8"?>
<!-- Generator: Adobe Illustrator 16.0.0, SVG Export Plug-In . SVG Version: 6.00 Build 0)  -->
<!DOCTYPE svg PUBLIC "-//W3C//DTD SVG 1.1//EN" "http://www.w3.org/Graphics/SVG/1.1/DTD/svg11.dtd">
<svg version="1.1" id="Layer_1" xmlns="http://www.w3.org/2000/svg" xmlns:xlink="http://www.w3.org/1999/xlink" x="0px" y="0px"
	 width="91px" height="82px" viewBox="0 0 91 82" enable-background="new 0 0 91 82" xml:space="preserve">
<g>
	<path fill-rule="evenodd" clip-rule="evenodd" fill="#FFFFFF" d="M45.69,1.007c13.818,0,27.639-0.001,41.457,0
		c2.559,0,2.938,0.385,2.938,2.944c0.002,5.954-0.039,11.909,0.014,17.862c0.042,4.686-1.665,8.437-5.475,11.243
		c-0.415,0.306-0.596,1.163-0.597,1.765c-0.029,13.51-0.018,27.022-0.016,40.532c0.001,1.191,0.034,2.383-0.011,3.572
		c-0.054,1.418-0.632,1.977-2.029,2.063c-0.365,0.021-0.731,0.008-1.098,0.008c-23.521,0-47.04,0-70.56,0
		c-2.785,0-3.12-0.344-3.12-3.188c0-14.336-0.009-28.672,0.021-43.007c0.002-0.957-0.249-1.535-1.054-2.137
		c-3.146-2.355-4.925-5.566-4.991-9.505C1.057,16.475,1.113,9.787,1.129,3.1C1.133,1.685,1.736,1.11,3.136,1.02
		c0.547-0.035,1.098-0.012,1.646-0.012C18.419,1.007,32.055,1.007,45.69,1.007z M10.779,77.412c23.288,0,46.458,0,69.601,0
		c0-14.217,0-28.332,0-42.505c-5.726,0.9-10.146-1.056-13.38-5.739c-4.779,7.402-15.681,8.447-21.455,0.029
		c-2.553,3.817-6.101,5.957-10.679,5.942c-4.553-0.014-8.07-2.193-10.638-6.026c-3.332,4.852-7.805,6.673-13.449,5.805
		C10.779,49.113,10.779,63.209,10.779,77.412z M4.826,4.565c-0.077,0.153-0.15,0.232-0.15,0.31
		c0.008,6.313-0.168,12.632,0.097,18.934c0.209,4.912,5.236,8.534,10.115,7.729c4.561-0.751,7.583-4.409,7.613-9.32
		c0.034-5.536,0.01-11.072,0.003-16.608c0-0.347-0.073-0.691-0.112-1.044C16.456,4.565,10.624,4.565,4.826,4.565z M68.89,4.533
		c-0.088,0.198-0.155,0.278-0.155,0.359c-0.009,5.993-0.206,11.993,0.036,17.976c0.253,6.261,5.773,10.079,11.58,8.341
		c3.698-1.106,6.15-4.4,6.202-8.596c0.07-5.718,0.025-11.438,0.02-17.157c0-0.298-0.097-0.596-0.153-0.922
		C80.534,4.533,74.736,4.533,68.89,4.533z M26.169,4.567C26.101,4.764,26.02,4.89,26.02,5.015c0.014,6.174-0.139,12.354,0.104,18.52
		c0.216,5.435,5.663,9.171,10.937,7.836c4.188-1.061,6.776-4.526,6.815-9.284c0.045-5.443,0.013-10.886,0.007-16.33
		c-0.001-0.393-0.063-0.786-0.099-1.19C37.824,4.567,31.993,4.567,26.169,4.567z M47.467,4.571c0,6.458-0.186,12.81,0.063,19.145
		c0.177,4.537,4.252,7.951,8.781,7.938c4.582-0.014,8.604-3.513,8.773-8.111c0.227-6.165,0.099-12.344,0.116-18.518
		c0.001-0.126-0.083-0.252-0.155-0.454C59.226,4.571,53.394,4.571,47.467,4.571z"/>
	<path fill-rule="evenodd" clip-rule="evenodd" fill="#FFFFFF" d="M45.607,68.764c-7.867,0-15.735,0.002-23.604,0
		c-2.038-0.002-2.538-0.484-2.539-2.482c-0.006-7.646-0.006-15.293,0-22.939c0.002-1.946,0.567-2.526,2.54-2.527
		c15.737-0.009,31.473-0.009,47.211,0c1.984,0.001,2.53,0.565,2.532,2.529c0.007,7.646,0.007,15.293,0,22.938
		c-0.003,2.021-0.481,2.48-2.534,2.482C61.345,68.766,53.476,68.764,45.607,68.764z M68.243,44.418c-15.172,0-30.192,0-45.223,0
		c0,6.979,0,13.861,0,20.746c15.129,0,30.146,0,45.223,0C68.243,58.207,68.243,51.359,68.243,44.418z"/>
</g>
</svg>
