<?xml version="1.0" encoding="utf-8"?>
<!-- Generator: Adobe Illustrator 16.0.0, SVG Export Plug-In . SVG Version: 6.00 Build 0)  -->
<!DOCTYPE svg PUBLIC "-//W3C//DTD SVG 1.1//EN" "http://www.w3.org/Graphics/SVG/1.1/DTD/svg11.dtd">
<svg version="1.1" id="Layer_1" xmlns="http://www.w3.org/2000/svg" xmlns:xlink="http://www.w3.org/1999/xlink" x="0px" y="0px"
	 width="330px" height="330px" viewBox="0 0 330 330" enable-background="new 0 0 330 330" xml:space="preserve">
<g>
	<path fill-rule="evenodd" clip-rule="evenodd" fill="#C8C8C8" d="M299.768,313.701c0-32.456,0-64.553,0-97.188
		c-3.704,0-7.17,0-10.635,0c-14.998,0-29.994,0.02-44.992-0.023c-2.153-0.006-4.842,0.421-6.332-0.662
		c-2.152-1.564-4.285-4.123-4.881-6.625c-0.791-3.326,1.289-6.137,4.83-7.087c1.739-0.467,3.627-0.523,5.447-0.526
		c20.496-0.034,40.992-0.049,61.488-0.01c9.203,0.018,10.292,1.175,10.293,10.372c0.001,34.66,0.003,69.321-0.002,103.981
		c-0.002,10.486-2.553,13.093-12.764,13.093c-91.816,0-183.633,0.001-275.45-0.001c-8.62,0-11.736-3.006-11.744-11.6
		c-0.03-35.826-0.021-71.653-0.005-107.48c0.003-6.436,1.434-8.242,7.791-8.286c21.995-0.155,43.992-0.136,65.987-0.024
		c5.69,0.029,8.596,2.926,8.482,7.625c-0.111,4.547-3.12,7.174-8.933,7.208c-17.33,0.102-34.66,0.042-51.99,0.046
		c-1.967,0-3.935,0-6.13,0c0,32.641,0,64.738,0,97.188C119.972,313.701,209.68,313.701,299.768,313.701z"/>
	<path fill-rule="evenodd" clip-rule="evenodd" fill="#C8C8C8" d="M155.694,28.532c-1.006,1.542-1.783,3.313-3.053,4.593
		c-22.754,22.948-45.565,45.84-68.377,68.731c-1.525,1.53-3.012,3.154-4.755,4.4c-3.513,2.511-7.03,2.022-9.84-1.103
		c-2.667-2.967-2.678-6.338-0.153-9.525c0.926-1.171,2.014-2.219,3.073-3.277c28.146-28.156,56.294-56.308,84.45-84.453
		c6.879-6.877,9.124-6.866,16.06,0.066c28.154,28.147,56.306,56.299,84.453,84.453c5.338,5.34,6.195,9.251,2.85,12.816
		c-3.764,4.014-7.775,3.26-13.6-2.568c-23.197-23.211-46.409-46.407-69.542-69.682c-1.233-1.242-1.792-3.152-2.665-4.751
		c-0.707,0.505-1.414,1.011-2.121,1.515c0,1.941,0,3.883,0,5.824c0,57.471,0.004,114.942-0.015,172.414
		c-0.001,2.158,0.039,4.371-0.401,6.461c-0.783,3.727-3.331,5.674-7.146,5.629c-3.814-0.043-6.291-2.06-7.002-5.796
		c-0.401-2.103-0.367-4.307-0.368-6.466c-0.017-57.47-0.014-114.94-0.014-172.411c0-1.932,0-3.863,0-5.794
		C156.916,29.25,156.305,28.891,155.694,28.532z"/>
</g>
</svg>
