<?xml version="1.0" encoding="utf-8"?>
<!-- Generator: Adobe Illustrator 16.0.0, SVG Export Plug-In . SVG Version: 6.00 Build 0)  -->
<!DOCTYPE svg PUBLIC "-//W3C//DTD SVG 1.1//EN" "http://www.w3.org/Graphics/SVG/1.1/DTD/svg11.dtd">
<svg version="1.1" id="Layer_1" xmlns="http://www.w3.org/2000/svg" xmlns:xlink="http://www.w3.org/1999/xlink" x="0px" y="0px"
	 width="330px" height="330px" viewBox="0 0 330 330" enable-background="new 0 0 330 330" xml:space="preserve">
<path fill-rule="evenodd" clip-rule="evenodd" fill="#333333" d="M165,147.309c-2.133,2.439-3.099,3.713-4.433,5.049
	c-31.144,31.173-62.306,62.33-93.466,93.487c-5.968,5.966-9.343,5.967-15.298,0.021c-3.306-3.301-6.622-6.592-9.9-9.919
	c-4.819-4.895-4.816-8.768,0.071-13.66c22.132-22.153,44.28-44.287,66.424-66.428c16.341-16.337,32.68-32.676,49.021-49.009
	c5.802-5.798,9.315-5.835,15.015-0.138c38.312,38.29,76.621,76.585,114.926,114.883c5.778,5.779,5.78,9.321,0.051,15.063
	c-3.3,3.307-6.597,6.617-9.921,9.898c-5.025,4.96-8.97,4.96-13.976-0.044c-31.702-31.689-63.398-63.383-95.068-95.104L165,147.309z"
	/>
</svg>
