<?xml version="1.0" encoding="utf-8"?>
<!-- Generator: Adobe Illustrator 16.0.0, SVG Export Plug-In . SVG Version: 6.00 Build 0)  -->
<!DOCTYPE svg PUBLIC "-//W3C//DTD SVG 1.1//EN" "http://www.w3.org/Graphics/SVG/1.1/DTD/svg11.dtd">
<svg version="1.1" id="Layer_1" xmlns="http://www.w3.org/2000/svg" xmlns:xlink="http://www.w3.org/1999/xlink" x="0px" y="0px"
	 width="120px" height="85px" viewBox="0 0 120 85" enable-background="new 0 0 120 85" xml:space="preserve">
<g>
	<g>
		<path fill-rule="evenodd" clip-rule="evenodd" fill="#C8C8C9" d="M107.804,72.561c0,3.818,0,7.443,0,11.439
			c-4.293-3.359-8.357-6.441-12.299-9.672c-1.666-1.367-3.325-2.012-5.541-1.998c-15.17,0.1-30.341,0.057-45.513,0.053
			c-6.188-0.004-9.199-3.014-9.201-9.188c-0.003-11.617-0.003-23.234,0-34.851c0.001-5.765,3.107-8.992,8.843-9.001
			c21.956-0.03,43.913-0.03,65.87,0c5.835,0.008,8.972,3.242,8.98,9.125c0.018,11.425-0.111,22.851,0.054,34.275
			c0.085,5.863-3.243,10.178-9.589,9.729C108.974,72.439,108.53,72.516,107.804,72.561z M103.646,68.143
			c2.571,0,4.8,0.031,7.027-0.008c2.564-0.045,4.066-1.49,4.072-4.066c0.029-12.123,0.055-24.246-0.055-36.367
			c-0.01-1.124-0.689-2.606-1.557-3.259c-0.958-0.722-2.488-0.933-3.771-0.936c-21.687-0.053-43.373-0.037-65.06-0.039
			c-3.462,0-4.829,1.373-4.83,4.895c-0.002,11.609-0.002,23.22,0,34.83c0.001,3.719,1.219,4.951,4.914,4.951
			c16.377,0.004,32.753-0.018,49.13,0.047c1.048,0.004,2.229,0.459,3.112,1.055c2.305,1.557,4.48,3.311,7.016,5.217
			C103.646,72.205,103.646,70.322,103.646,68.143z"/>
		<path fill-rule="evenodd" clip-rule="evenodd" fill="#C8C8C9" d="M16.242,56.373c2.478-1.887,4.534-3.307,6.41-4.934
			c1.356-1.176,2.768-1.654,4.529-1.52c1.524,0.119,3.063,0.025,4.762,0.025c0,1.395,0,2.689,0,4.004
			c-0.242,0.078-0.431,0.213-0.589,0.182c-3.662-0.697-6.282,1.156-8.875,3.396c-2.808,2.426-5.814,4.623-8.743,6.908
			c-0.43,0.336-0.908,0.609-1.671,1.117c0-3.943,0-7.563,0-11.396c-1.161,0-2.1,0.023-3.038-0.004
			c-4.53-0.129-7.951-3.398-7.976-7.904C0.984,33.8,0.983,21.351,1.046,8.902c0.023-4.536,3.414-7.87,7.958-7.877
			C31.531,0.99,54.06,0.993,76.588,1.024c4.331,0.006,7.563,2.959,7.913,7.295c0.209,2.602,0.038,5.235,0.038,8.01
			c-1.259,0-2.494,0-4.01,0c0-2.121,0.013-4.278-0.003-6.435c-0.021-3.234-1.447-4.674-4.689-4.676
			C53.885,5.21,31.934,5.21,9.982,5.218c-3.41,0.001-4.704,1.337-4.705,4.791c-0.003,11.743-0.003,23.487,0,35.23
			c0.002,3.406,1.33,4.713,4.761,4.721c1.855,0.004,3.712,0.01,5.567,0.02c0.125,0,0.249,0.053,0.636,0.143
			C16.242,51.982,16.242,53.922,16.242,56.373z"/>
		<path fill-rule="evenodd" clip-rule="evenodd" fill="#C8C8C9" d="M97.917,46.871c-0.036,2.457-1.96,4.301-4.455,4.271
			c-2.442-0.029-4.402-1.99-4.396-4.398c0.007-2.309,2.115-4.428,4.429-4.451C95.96,42.27,97.954,44.334,97.917,46.871z"/>
		<path fill-rule="evenodd" clip-rule="evenodd" fill="#C8C8C9" d="M59.936,51.145c-2.476,0.021-4.405-1.842-4.455-4.299
			c-0.051-2.498,1.992-4.586,4.453-4.552c2.363,0.032,4.396,2.091,4.397,4.453C64.331,49.158,62.367,51.123,59.936,51.145z"/>
		<path fill-rule="evenodd" clip-rule="evenodd" fill="#C8C8C9" d="M81.106,46.797c-0.023,2.451-1.941,4.344-4.408,4.348
			c-2.438,0.002-4.414-1.93-4.443-4.346c-0.03-2.424,2.143-4.581,4.54-4.504C79.205,42.371,81.128,44.379,81.106,46.797z"/>
	</g>
</g>
</svg>
