<?xml version="1.0" encoding="utf-8"?>
<!-- Generator: Adobe Illustrator 16.0.0, SVG Export Plug-In . SVG Version: 6.00 Build 0)  -->
<!DOCTYPE svg PUBLIC "-//W3C//DTD SVG 1.1//EN" "http://www.w3.org/Graphics/SVG/1.1/DTD/svg11.dtd">
<svg version="1.1" id="Layer_1" xmlns="http://www.w3.org/2000/svg" xmlns:xlink="http://www.w3.org/1999/xlink" x="0px" y="0px"
	 width="120px" height="119px" viewBox="0 0 120 119" enable-background="new 0 0 120 119" xml:space="preserve">
<g>
	<g>
		<path fill="#C8C8C9" d="M111.971,58.832h-7.436V37.134H62.45V20.691h1.859c5.693,0,10.31-4.629,10.31-10.34
			S70.003,0.01,64.31,0.01h-8.451c-5.694,0-10.31,4.63-10.31,10.341s4.616,10.34,10.31,10.34h1.859v16.443H15.633v21.698H8.197
			c-4.48,0-8.113,3.643-8.113,8.137v22.207c0,4.493,3.632,8.137,8.113,8.137h7.437v21.697h88.902V97.313h7.436
			c4.48,0,8.113-3.644,8.113-8.137V66.969C120.084,62.475,116.451,58.832,111.971,58.832z M55.858,15.944
			c-3.075,0-5.577-2.509-5.577-5.594c0-3.084,2.502-5.594,5.577-5.594h8.451c3.075,0,5.577,2.51,5.577,5.594
			c0,3.084-2.502,5.594-5.577,5.594H55.858z M15.633,92.565H8.197c-1.864,0-3.38-1.521-3.38-3.39V66.969
			c0-1.869,1.517-3.391,3.38-3.391h7.437V92.565z M99.803,114.264H20.366V41.88h79.437V114.264z M115.352,89.176
			c0,1.869-1.517,3.39-3.381,3.39h-7.436V63.578h7.436c1.864,0,3.381,1.521,3.381,3.391V89.176z"/>
		<path fill="#C8C8C9" d="M43.352,92.057c7.094,0,12.845-5.768,12.845-12.883s-5.751-12.883-12.845-12.883
			s-12.845,5.768-12.845,12.883S36.258,92.057,43.352,92.057z M43.352,71.037c4.473,0,8.113,3.65,8.113,8.137
			s-3.64,8.137-8.113,8.137s-8.113-3.65-8.113-8.137S38.878,71.037,43.352,71.037z"/>
		<path fill="#C8C8C9" d="M76.816,92.057c7.094,0,12.846-5.768,12.846-12.883S83.91,66.291,76.816,66.291
			s-12.846,5.768-12.846,12.883S69.723,92.057,76.816,92.057z M76.816,71.037c4.474,0,8.113,3.65,8.113,8.137
			s-3.64,8.137-8.113,8.137s-8.113-3.65-8.113-8.137S72.343,71.037,76.816,71.037z"/>
	</g>
</g>
</svg>
