<?xml version="1.0" encoding="utf-8"?>
<!-- Generator: Adobe Illustrator 19.0.0, SVG Export Plug-In . SVG Version: 6.00 Build 0)  -->
<svg version="1.1" id="Layer_1" xmlns="http://www.w3.org/2000/svg" xmlns:xlink="http://www.w3.org/1999/xlink" x="0px" y="0px"
	 viewBox="-258 381.9 79 79" style="enable-background:new -258 381.9 79 79;" xml:space="preserve">
<style type="text/css">
	.st0{fill:#FFFFFF;}
</style>
<g>
	<path class="st0" d="M-214.8,400.2c0-4.7,0-9.3,0-14c0-2.4,1-3.4,3.3-3.4c9.4,0,18.7,0,28.1,0c2.3,0,3.3,1,3.3,3.4
		c0,9.3,0,18.7,0,28c0,2.4-1,3.4-3.4,3.4c-9.3,0-18.7,0-28,0c-2.4,0-3.4-1-3.4-3.4C-214.8,409.6-214.8,404.9-214.8,400.2z
		 M-185.5,412.2c0-8,0-15.9,0-23.8c-8,0-15.9,0-23.8,0c0,8,0,15.9,0,23.8C-201.3,412.2-193.4,412.2-185.5,412.2z"/>
	<path class="st0" d="M-239.5,425c4.7,0,9.4,0,14.1,0c2.3,0,3.3,1,3.3,3.3c0,9.4,0,18.8,0,28.2c0,2.2-1,3.3-3.3,3.3
		c-9.4,0-18.9,0-28.3,0c-2.2,0-3.3-1.1-3.3-3.3c0-9.4,0-18.8,0-28.2c0-2.3,1-3.3,3.3-3.3C-248.9,425-244.2,425-239.5,425z
		 M-227.7,454.4c0-8,0-15.9,0-23.8c-8,0-15.9,0-23.8,0c0,8,0,15.9,0,23.8C-243.5,454.4-235.6,454.4-227.7,454.4z"/>
	<path class="st0" d="M-239.7,417.7c-4.6,0-9.3,0-13.9,0c-2.3,0-3.4-1-3.4-3.4c0-9.4,0-18.7,0-28.1c0-2.3,1-3.3,3.3-3.3
		c9.4,0,18.8,0,28.2,0c2.3,0,3.3,1,3.3,3.3c0,9.4,0,18.8,0,28.2c0,2.3-1,3.3-3.3,3.3C-230.2,417.7-234.9,417.7-239.7,417.7z
		 M-227.7,412.2c0-8,0-15.9,0-23.8c-8,0-15.9,0-23.8,0c0,8,0,15.9,0,23.8C-243.5,412.2-235.6,412.2-227.7,412.2z"/>
	<path class="st0" d="M-214.8,442.4c0-4.7,0-9.3,0-14c0-2.3,1-3.3,3.3-3.3c9.4,0,18.8,0,28.2,0c2.2,0,3.3,1.1,3.3,3.3
		c0,9.4,0,18.9,0,28.3c0,2.2-1,3.3-3.3,3.3c-9.4,0-18.9,0-28.3,0c-2.2,0-3.2-1-3.2-3.3C-214.8,451.8-214.8,447.1-214.8,442.4z
		 M-209.3,454.3c8,0,15.9,0,23.8,0c0-8,0-15.9,0-23.8c-8,0-15.9,0-23.8,0C-209.3,438.5-209.3,446.4-209.3,454.3z"/>
</g>
</svg>
