<?xml version="1.0" encoding="utf-8"?>
<!-- Generator: Adobe Illustrator 16.0.0, SVG Export Plug-In . SVG Version: 6.00 Build 0)  -->
<!DOCTYPE svg PUBLIC "-//W3C//DTD SVG 1.1//EN" "http://www.w3.org/Graphics/SVG/1.1/DTD/svg11.dtd">
<svg version="1.1" id="Layer_1" xmlns="http://www.w3.org/2000/svg" xmlns:xlink="http://www.w3.org/1999/xlink" x="0px" y="0px"
	 width="330px" height="330px" viewBox="0 0 330 330" enable-background="new 0 0 330 330" xml:space="preserve">
<g>
	<g>
		<path fill-rule="evenodd" clip-rule="evenodd" fill="#FFFFFF" d="M255.696,236.051c-0.642-1.255-1.284-2.51-1.856-3.795
			c-8.467-19.039-22.914-30.957-42.955-36.334c-4.539-1.217-8.988-2.768-13.785-4.26c4.322-6.741,8.285-12.969,12.294-19.166
			c6.542-10.116,8.878-21.193,7.446-33.073c-0.559-4.631-1.436-9.226-2.238-13.825c-4.111-23.512-23.203-40.265-46.927-41.205
			c-22.74-0.9-43.489,14.85-49.176,37.522c-1.449,5.777-2.609,11.653-3.471,17.546c-1.844,12.606,1.059,24.183,8.129,34.777
			c3.719,5.574,7.255,11.271,11.064,17.209c-4.28,1.264-7.969,2.459-11.712,3.443c-12.119,3.186-23.065,8.387-31.968,17.518
			c-6.307,6.468-10.448,14.266-14.549,22.099c-0.122,0.232-0.244,0.464-0.366,0.696c2.437,3.385,5.055,6.63,7.846,9.717
			c0.112-0.253,0.216-0.501,0.343-0.762c0.251-0.516,0.532-1.048,0.842-1.598c3.627-6.426,7.068-13.05,11.489-18.908
			c6.46-8.561,15.62-13.438,25.914-16.23c5.258-1.426,10.501-2.918,15.711-4.512c7.737-2.365,10.497-9.373,6.297-16.269
			c-3.78-6.204-7.809-12.257-11.735-18.372c-5.567-8.671-7.883-18.086-5.702-28.229c1.628-7.572,2.857-15.463,6.001-22.427
			c6.921-15.329,22.188-23.263,38.763-21.488c15.385,1.647,28.194,12.828,31.854,28.938c1.793,7.897,2.838,16.163,2.685,24.231
			c-0.099,5.169-2.315,10.649-4.809,15.34c-3.884,7.311-8.769,14.093-13.302,21.051c-4.547,6.979-1.941,14.485,6.007,16.987
			c8.156,2.567,16.491,4.667,24.446,7.748c9.348,3.62,16.412,10.339,21.533,18.938c2.92,4.9,5.592,9.959,8.174,15.049
			c0.255,0.501,0.461,0.997,0.645,1.49c2.568-2.774,5-5.677,7.28-8.701C255.83,236.572,255.753,236.162,255.696,236.051z"/>
	</g>
</g>
</svg>
