<?xml version="1.0" encoding="utf-8"?>
<!-- Generator: Adobe Illustrator 16.0.0, SVG Export Plug-In . SVG Version: 6.00 Build 0)  -->
<!DOCTYPE svg PUBLIC "-//W3C//DTD SVG 1.1//EN" "http://www.w3.org/Graphics/SVG/1.1/DTD/svg11.dtd">
<svg version="1.1" id="Layer_1" xmlns="http://www.w3.org/2000/svg" xmlns:xlink="http://www.w3.org/1999/xlink" x="0px" y="0px"
	 width="56.69px" height="56.69px" viewBox="0 0 56.69 56.69" enable-background="new 0 0 56.69 56.69" xml:space="preserve">
<path fill="#C8C8C8" d="M52.394,54.522H6.308c-0.896,0-1.623-0.727-1.623-1.623s0.727-1.623,1.623-1.623h44.462V15.338H11.323
	v27.864c0.042,2.005-0.754,3.147-1.431,3.752c-1.355,1.214-3.132,1.152-3.647,1.105c-1.201-0.021-2.238-0.442-3.004-1.224
	c-1.328-1.352-1.365-3.29-1.362-3.596V3.656c0-0.896,0.727-1.623,1.623-1.623h11.053c0.416,0,0.815,0.159,1.117,0.445l2.922,2.771
	h25.963c0.896,0,1.623,0.727,1.623,1.623s-0.727,1.623-1.623,1.623h-26.61c-0.416,0-0.815-0.159-1.117-0.445l-2.922-2.771H5.124
	V43.25c0,0.019,0,0.011,0,0.022c0.001,0.155,0.044,0.605,0.222,0.977c0.167,0.349,0.39,0.564,0.991,0.564
	c0.083,0,0.129,0.001,0.209,0.014c0.215,0.021,0.854,0.009,1.188-0.298c0.302-0.277,0.353-0.844,0.343-1.271
	c0-0.013,0-0.025,0-0.038V13.715c0-0.896,0.727-1.623,1.623-1.623h42.693c0.896,0,1.623,0.727,1.623,1.623v39.184
	C54.017,53.796,53.29,54.522,52.394,54.522z"/>
</svg>
