<?xml version="1.0" encoding="utf-8"?>
<!-- Generator: Adobe Illustrator 16.0.0, SVG Export Plug-In . SVG Version: 6.00 Build 0)  -->
<!DOCTYPE svg PUBLIC "-//W3C//DTD SVG 1.1//EN" "http://www.w3.org/Graphics/SVG/1.1/DTD/svg11.dtd">
<svg version="1.1" id="Layer_1" xmlns="http://www.w3.org/2000/svg" xmlns:xlink="http://www.w3.org/1999/xlink" x="0px" y="0px"
	 width="81px" height="81px" viewBox="0 0 81 81" enable-background="new 0 0 81 81" xml:space="preserve">
<g>
	<path fill="#369EDA" d="M55.932,45.666c-1.039-0.186-1.953,0.379-2.531,1.578c-1.291,2.672-3.221,4.729-5.838,6.145
		c-2.729,1.479-5.629,2.006-8.702,1.674c-3.158-0.342-5.929-1.541-8.285-3.693c-1.393-1.27-2.354-2.82-3.177-4.498
		c-0.568-1.16-1.853-1.555-2.938-1.025c-1.088,0.527-1.538,1.766-1.051,2.949c0.206,0.496,0.44,0.984,0.707,1.451
		c3.615,6.316,9.264,9.107,15.715,9.426c4.776-0.049,8.577-1.193,11.948-3.643c2.547-1.85,4.471-4.221,5.756-7.098
		C58.193,47.461,57.436,45.938,55.932,45.666z"/>
	<path fill="#369EDA" d="M51.301,34.457c2.508,0.026,4.617-2.066,4.629-4.591c0.012-2.539-2.043-4.61-4.584-4.621
		c-2.537-0.01-4.623,2.044-4.646,4.576C46.674,32.317,48.771,34.43,51.301,34.457z"/>
	<path fill="#369EDA" d="M30.389,34.46c2.529-0.01,4.593-2.093,4.587-4.628c-0.007-2.547-2.063-4.595-4.608-4.588
		c-2.542,0.006-4.603,2.074-4.592,4.609C25.786,32.39,27.87,34.469,30.389,34.46z"/>
	<path fill="#369EDA" d="M40.5,1.039C18.685,1.039,1,18.723,1,40.539c0,21.815,17.685,39.5,39.5,39.5
		c21.816,0,39.5-17.686,39.5-39.5C80,18.723,62.316,1.039,40.5,1.039z M40.5,75.039c-19.023,0-34.5-15.477-34.5-34.5
		c0-19.023,15.477-34.5,34.5-34.5c19.023,0,34.5,15.477,34.5,34.5C75,59.563,59.523,75.039,40.5,75.039z"/>
</g>
</svg>
