<?xml version="1.0" encoding="utf-8"?>
<!-- Generator: Adobe Illustrator 16.0.0, SVG Export Plug-In . SVG Version: 6.00 Build 0)  -->
<!DOCTYPE svg PUBLIC "-//W3C//DTD SVG 1.1//EN" "http://www.w3.org/Graphics/SVG/1.1/DTD/svg11.dtd">
<svg version="1.1" id="Layer_1" xmlns="http://www.w3.org/2000/svg" xmlns:xlink="http://www.w3.org/1999/xlink" x="0px" y="0px"
	 width="135px" height="132px" viewBox="0 0 135 132" enable-background="new 0 0 135 132" xml:space="preserve">
<g>
	<path fill="#FFFFFF" d="M134.914,72.439c-0.006-0.07-0.647-7.093-8.299-8.549l-8.844-0.015V39.098H67.77V20.267h3.715
		c5.628,0,10.206-4.573,10.206-10.194c0-5.622-4.578-10.195-10.206-10.195h-9.051c-5.628,0-10.207,4.573-10.207,10.195
		c0,5.621,4.579,10.194,10.207,10.194h3.339v18.831H16.895v24.775L8.98,63.877c-0.079,0.007-7.958,0.829-9.053,8.67l-0.01,0.068
		l0.003,25.92c0.006,0.07,0.647,7.094,8.299,8.551l8.676,0.015v24.777h100.876v-24.775l8.082-0.004
		c0.08-0.007,7.959-0.829,9.054-8.671l0.01-0.068L134.914,72.439z M62.433,18.272c-4.527,0-8.209-3.678-8.209-8.199
		s3.682-8.2,8.209-8.2h9.051c4.526,0,8.209,3.679,8.209,8.2s-3.683,8.199-8.209,8.199H67.77h-1.997H62.433z M8.503,105.107
		c-6.041-1.2-6.572-6.506-6.588-6.65V72.756c0.909-6.195,6.993-6.867,7.158-6.888h7.822v39.24H8.503z M115.773,129.883H18.893
		v-88.79h96.881V129.883z M132.92,98.219c-0.91,6.196-6.994,6.868-7.158,6.889h-7.99v-39.24h8.56
		c6.041,1.201,6.571,6.506,6.589,6.651V98.219z"/>
	<path fill="#FFFFFF" d="M42.696,95.963c7.906,0,14.315-6.402,14.315-14.299c0-7.897-6.409-14.3-14.315-14.3
		s-14.315,6.402-14.315,14.3C28.381,89.561,34.79,95.963,42.696,95.963z M42.696,70.357c6.242,0,11.319,5.072,11.319,11.307
		s-5.078,11.307-11.319,11.307c-6.241,0-11.319-5.072-11.319-11.307S36.455,70.357,42.696,70.357z"/>
	<path fill="#FFFFFF" d="M91.137,95.963c7.906,0,14.315-6.402,14.315-14.299c0-7.897-6.409-14.3-14.315-14.3
		s-14.315,6.402-14.315,14.3C76.821,89.561,83.23,95.963,91.137,95.963z M91.137,70.357c6.242,0,11.319,5.072,11.319,11.307
		s-5.077,11.307-11.319,11.307c-6.241,0-11.318-5.072-11.318-11.307S84.896,70.357,91.137,70.357z"/>
	<path fill="#FFFFFF" d="M93.551,105.689H41.864c-4.887,0-8.864,3.973-8.864,8.854s3.977,8.854,8.864,8.854h51.687
		c4.888,0,8.864-3.973,8.864-8.854S98.438,105.689,93.551,105.689z M34.998,114.544c0-3.13,2.111-5.771,4.984-6.591v13.182
		C37.109,120.314,34.998,117.674,34.998,114.544z M41.979,121.402v-13.717H53.6v13.717H41.979z M55.598,121.402v-13.717h11.985
		v13.717H55.598z M69.58,121.402v-13.717h11.111v13.717H69.58z M82.689,121.402v-13.717h10.861c0.383,0,0.757,0.039,1.123,0.1
		v13.518c-0.366,0.061-0.74,0.1-1.123,0.1H82.689z M96.672,120.646v-12.203c2.221,1.138,3.746,3.442,3.746,6.102
		S98.893,119.508,96.672,120.646z"/>
</g>
</svg>
