<?xml version="1.0" encoding="utf-8"?>
<!-- Generator: Adobe Illustrator 16.0.0, SVG Export Plug-In . SVG Version: 6.00 Build 0)  -->
<!DOCTYPE svg PUBLIC "-//W3C//DTD SVG 1.1//EN" "http://www.w3.org/Graphics/SVG/1.1/DTD/svg11.dtd">
<svg version="1.1" id="Layer_1" xmlns="http://www.w3.org/2000/svg" xmlns:xlink="http://www.w3.org/1999/xlink" x="0px" y="0px"
	 width="79px" height="79px" viewBox="0 0 79 79" enable-background="new 0 0 79 79" xml:space="preserve">
<g>
	<path fill-rule="evenodd" clip-rule="evenodd" fill="#369EDA" d="M43.24,18.34c0-4.674-0.002-9.347,0-14.02
		c0.001-2.357,0.992-3.353,3.349-3.354c9.374-0.003,18.748-0.003,28.121,0c2.347,0.001,3.333,0.998,3.333,3.364
		c0.002,9.347,0.002,18.692,0,28.038c0,2.414-0.983,3.398-3.387,3.398c-9.346,0.001-18.691,0.002-28.038,0
		c-2.4,0-3.377-0.986-3.378-3.409C43.239,27.685,43.24,23.012,43.24,18.34z M72.538,30.276c0-8,0-15.908,0-23.806
		c-7.968,0-15.876,0-23.775,0c0,7.966,0,15.875,0,23.806C56.714,30.276,64.602,30.276,72.538,30.276z"/>
	<path fill-rule="evenodd" clip-rule="evenodd" fill="#369EDA" d="M18.451,43.159c4.699,0,9.399-0.002,14.1,0.001
		c2.287,0.001,3.298,1.018,3.299,3.32c0.001,9.4,0.001,18.8-0.001,28.2c0,2.247-1.016,3.277-3.251,3.279
		c-9.429,0.005-18.856,0.005-28.283,0c-2.199-0.002-3.266-1.077-3.267-3.289c-0.004-9.399-0.004-18.8,0-28.199
		c0-2.3,1.012-3.311,3.304-3.312C9.052,43.157,13.751,43.159,18.451,43.159z M30.332,72.486c0-7.984,0-15.893,0-23.81
		c-7.963,0-15.871,0-23.786,0c0,7.963,0,15.872,0,23.81C14.487,72.486,22.375,72.486,30.332,72.486z"/>
	<path fill-rule="evenodd" clip-rule="evenodd" fill="#369EDA" d="M18.347,35.769c-4.645,0-9.288,0.001-13.934-0.001
		c-2.31,0-3.365-1.049-3.365-3.358c-0.003-9.372-0.004-18.745,0-28.117c0-2.315,0.993-3.323,3.286-3.325
		c9.4-0.003,18.8-0.003,28.2,0c2.302,0.001,3.314,1.012,3.314,3.301c0.002,9.4,0.002,18.801,0,28.2c0,2.29-1.018,3.299-3.319,3.3
		C27.802,35.771,23.073,35.769,18.347,35.769z M30.327,30.274c0-7.997,0-15.905,0-23.804c-7.97,0-15.878,0-23.775,0
		c0,7.968,0,15.877,0,23.804C14.498,30.274,22.387,30.274,30.327,30.274z"/>
	<path fill-rule="evenodd" clip-rule="evenodd" fill="#369EDA" d="M43.24,60.494c0-4.672-0.002-9.345,0-14.018
		c0.002-2.299,1.013-3.316,3.302-3.316c9.401-0.002,18.801-0.002,28.2,0c2.206,0,3.298,1.072,3.3,3.259
		c0.005,9.427,0.005,18.855,0,28.283c-0.001,2.245-1.018,3.257-3.27,3.258c-9.427,0.004-18.854,0.005-28.283-0.001
		c-2.232-0.001-3.247-1.033-3.249-3.282C43.237,69.949,43.24,65.222,43.24,60.494z M48.733,72.456c8.002,0,15.91,0,23.805,0
		c0-7.968,0-15.878,0-23.773c-7.968,0-15.876,0-23.805,0C48.733,56.634,48.733,64.522,48.733,72.456z"/>
</g>
</svg>
