<?xml version="1.0" encoding="utf-8"?>
<!-- Generator: Adobe Illustrator 16.0.0, SVG Export Plug-In . SVG Version: 6.00 Build 0)  -->
<!DOCTYPE svg PUBLIC "-//W3C//DTD SVG 1.1//EN" "http://www.w3.org/Graphics/SVG/1.1/DTD/svg11.dtd">
<svg version="1.1" id="Layer_1" xmlns="http://www.w3.org/2000/svg" xmlns:xlink="http://www.w3.org/1999/xlink" x="0px" y="0px"
	 width="66px" height="66px" viewBox="0 0 66 66" enable-background="new 0 0 66 66" xml:space="preserve">
<g>
	<g>
		<path fill-rule="evenodd" clip-rule="evenodd" fill="#636363" d="M40.948,42.076c-10.496,9.613-25.924,8.246-34.649-1.441
			C-2.198,31.204-2.08,16.813,6.541,7.737c8.914-9.385,23.162-10.343,33.142-2.266c10.53,8.522,12.338,24.976,2.421,35.509
			c0.222,0.184,0.462,0.35,0.667,0.553c7.523,7.52,15.044,15.041,22.564,22.563c0.719,0.721,0.848,1.23,0.421,1.656
			c-0.433,0.432-0.929,0.305-1.656-0.422c-7.522-7.523-15.043-15.045-22.562-22.568C41.334,42.557,41.16,42.324,40.948,42.076z
			 M24.319,1.737C11.839,1.736,1.731,11.853,1.74,24.334C1.748,36.785,11.825,46.875,24.279,46.9
			c12.468,0.027,22.604-10.084,22.616-22.562C46.908,11.862,36.795,1.738,24.319,1.737z"/>
	</g>
</g>
</svg>
