<svg xmlns="http://www.w3.org/2000/svg" width="48" height="53" viewBox="0 0 48 53">
  <g id="그룹_2756" data-name="그룹 2756" transform="translate(-154.115 -1571.217)">
    <path id="패스_4334" data-name="패스 4334" d="M45.165,25.714A21.2,21.2,0,1,1,24.034,2.824c.32,0,.637.01.953.024V.024C24.67.012,24.353,0,24.034,0A24,24,0,1,0,48,25.714Z" transform="translate(154.115 1576.217)" fill="#2f2f2f"/>
    <path id="다각형_2" data-name="다각형 2" d="M5.689,1.122a1,1,0,0,1,1.621,0l4.544,6.292A1,1,0,0,1,11.044,9H1.956a1,1,0,0,1-.811-1.585Z" transform="translate(185.871 1571.217) rotate(90)" fill="#2f2f2f"/>
    <path id="패스_4335" data-name="패스 4335" d="M86.944,34.764V50.44L97.365,60.55" transform="translate(89.867 1551.862)" fill="none" stroke="#ff404b" stroke-linecap="round" stroke-linejoin="round" stroke-width="3"/>
  </g>
</svg>
